<?xml version="1.0" encoding="utf-8"?>
<!-- Generator: Adobe Illustrator 27.4.0, SVG Export Plug-In . SVG Version: 6.00 Build 0)  -->
<svg version="1.1" id="Layer_1" xmlns="http://www.w3.org/2000/svg" xmlns:xlink="http://www.w3.org/1999/xlink" x="0px" y="0px"
	 viewBox="0 0 661 275.4" style="enable-background:new 0 0 661 275.4;" xml:space="preserve">
<style type="text/css">
	.st0{fill:#0E2554;}
	.st1{fill:#6CA342;}
	.st2{fill:#2D2926;}
</style>
<g id="Marken">
	<polygon class="st0" points="69.1,145.6 34.5,97.2 6.8,165.5 22.5,165.5 38,124.7 69.1,168.1 100.3,124.7 115.8,165.5 131.5,165.5 
		103.7,97.2 	"/>
	<path class="st0" d="M223.5,165.5l-8.6-12h-45.4l-8.6,12h-16.7l47.9-68.3l48.1,68.3H223.5z M192.1,122L177.2,143h30L192.1,122z"/>
	<path class="st0" d="M322.8,165.5l-14.8-21.3h-30v21.3h-15V99.8h47.4c19.9,0,27.4,12,27.4,22.1c0,7.6-4.1,16.2-14.4,20.2l16.3,23.4
		H322.8z M278.1,112.4v19.4h30.1c11.5,0,13.4-5.4,13.4-9.8s-1.9-9.5-13.4-9.5H278.1z"/>
	<polygon class="st0" points="414.2,126.6 448.6,165.5 431,165.5 403.2,135.4 384.3,150.6 384.3,165.5 369.3,165.5 369.3,99.8 
		384.3,99.8 384.3,135 427.8,99.8 447.6,99.8 	"/>
	<polygon class="st0" points="473.8,165.5 473.8,99.8 543.9,99.8 543.9,111 488.9,111 488.9,127.1 534.1,127.1 534.1,137.5 
		488.9,137.5 488.9,154.2 543.9,154.2 543.9,165.5 	"/>
	<polygon class="st0" points="588.8,122.8 588.8,165.5 573.7,165.5 573.7,97.2 639.2,142.6 639.2,99.8 654.3,99.8 654.3,168.1 	"/>
	<path class="st1" d="M429.6,36.4l-12.7-22c-1.3-2-3.5-3.3-5.9-3.4h-25.7c-2.4,0.1-4.7,1.4-6,3.4L367,35.5l-12.2-21.1
		c-1.3-2-3.5-3.3-5.9-3.4h-25.7c-2.4,0.1-4.7,1.4-6,3.4L305,35.5l-12.2-21.1c-1.3-2-3.5-3.3-6-3.4h-25.4c-2.4,0.1-4.6,1.4-5.9,3.4
		l-12.7,22c-1.1,2.1-1.1,4.7,0,6.9l12.7,22c1.3,2,3.4,3.3,5.8,3.4h25.8c2.4-0.2,4.5-1.4,5.8-3.4L305,44.2l12.2,21.1
		c1.3,2,3.4,3.3,5.8,3.4h15v0l10.1,0h0.5c2.4-0.1,4.6-1.4,5.9-3.4l12.5-21.6l12.5,21.6c1.3,2,3.4,3.3,5.8,3.4h12l0,0h6.5h7.3
		c2.4-0.2,4.5-1.4,5.8-3.4l12.7-22C430.7,41.1,430.7,38.6,429.6,36.4 M292.6,36.6c-2.4,0.1-4.7,1.4-6,3.4l-14,23.8l-1,1.8h-0.5
		l0.1,0.1l-9.7-0.1c-1.3-0.1-2.5-0.8-3.2-1.9l-12.7-22c-0.6-1.2-0.6-2.5,0-3.7l12.7-22c0.7-1.1,1.9-1.8,3.2-1.9h25.4
		c1.3,0.1,2.5,0.8,3.2,1.9L302,36.6L292.6,36.6z M353.1,36.6c-2.4,0.1-4.6,1.3-5.9,3.4l-11.8,20L324,40c-1.3-2.1-3.5-3.4-6-3.4h-10
		L320,16c0.7-1.1,1.9-1.7,3.2-1.9h25.7c1.3,0.1,2.5,0.8,3.2,1.9L364,36.6L353.1,36.6z M426.8,41.7l-12.7,22
		c-0.7,1.1-1.9,1.8-3.2,1.9h-11.8h-0.1L384,40c-1.3-2-3.6-3.3-6-3.4h-8L382,16c0.7-1.1,1.9-1.8,3.2-1.9h25.7
		c1.3,0.1,2.5,0.8,3.2,1.9l12.7,22C427.4,39.1,427.4,40.5,426.8,41.7"/>
	<path class="st2" d="M151.2,236.3c-1.4-0.2-2.7-0.3-4.1-0.4c-7.4,0-9.9,2.5-9.9,6.9c0,3.2,2.1,5.8,6.2,5.8c2.9,0,5.7-1.1,7.8-3
		V236.3z M151.8,251.4l-0.4-3.2c-2.1,1.8-5.1,4-9.4,4c-5.6,0-9.7-3.2-9.7-8.8c0-7.1,4-10.7,15.7-10.7c0.7,0,2.4,0.1,3.2,0.2v-4.7
		c0-3.6-2.6-5.4-6.1-5.4c-3.4,0.1-6.7,0.9-9.7,2.5l-1.6-3.2c3.7-2,7.9-3.1,12.2-3c6.1,0,9.9,2.9,9.9,8.9v23.5H151.8z"/>
	<path class="st2" d="M206.4,239.7c0,8.6-6.1,12.4-15.2,12.4s-15.2-3.7-15.2-12.4v-31.1h4.9v31.8c0,5.7,5,8.1,10.3,8.1
		s10.3-2.4,10.3-8.1v-31.8h4.9V239.7z"/>
	<path class="st2" d="M228.3,212.2h-8.5v17.4h8.4c4.4,0,7.9-3.1,7.9-8.9C236.2,215.9,233.5,212.2,228.3,212.2 M228.1,233.1h-8.3
		v18.3h-4.9v-42.7h13.3c8.3,0,12.9,4.6,12.9,12.1C241.2,229,235.5,233.1,228.1,233.1"/>
	<path class="st2" d="M256.8,252.1c-4.1,0-8.1-1.1-11.5-3.3c0.8-1.2,1.6-2.3,2.4-3.4c2.8,1.9,6.1,3,9.4,3.1c4.3,0,8-2.6,8-7.4
		c0-9.6-19.9-10.6-19.9-22.4c0-6.9,5.9-10.8,12.7-10.8c3.5,0,7,1,10,2.9l-1.9,3.3c-2.5-1.6-5.4-2.5-8.4-2.6c-4.1,0-7.5,2.2-7.5,6.3
		c0,9.8,19.8,10.3,19.8,23C270.1,248,263.6,252.1,256.8,252.1"/>
	<path class="st2" d="M316.8,250.6c-3.1,1.1-6.4,1.6-9.7,1.6c-12.3,0-21.1-9.4-21.1-22.3c0-13.8,10-21.9,21.3-21.9
		c3.3-0.1,6.7,0.5,9.8,1.8l-1.5,3.6c-2.7-1.2-5.6-1.8-8.5-1.8c-10.2,0-16.2,8.4-16.2,18.3c0,10.8,7.1,18.6,16.6,18.6
		c2.8,0.1,5.6-0.4,8.2-1.4L316.8,250.6z"/>
	<path class="st2" d="M333.5,222.7c-6.8,0-10.5,6.5-10.5,12.9c0,5.9,3.1,12.8,10.5,12.8s10.5-6.9,10.5-12.8
		C344,229.2,340.2,222.7,333.5,222.7 M333.5,252.1c-9.1,0-15.3-7.4-15.3-16.7s6.1-16.4,15.3-16.4s15.3,7.2,15.3,16.4
		S342.6,252.1,333.5,252.1"/>
	<path class="st2" d="M397.3,251.4v-22c0-4.4-1.9-6.6-5.5-6.6c-4.1,0-8.5,3-10.8,4.7c0.1,0.6,0.1,1.2,0.1,1.9v22.1h-4.6v-22
		c0-4.4-1.9-6.6-5.5-6.6c-3.8,0-8,2.6-10.7,4.6v24h-4.6v-31.6h4.5v4.4c2-1.7,6.4-5.1,11.8-5.1c3.5,0,7.1,1.4,8.4,5.5
		c3.7-2.9,7.6-5.5,12.4-5.5c5.2,0,9.1,3,9.1,10.3v22.1H397.3z"/>
	<path class="st2" d="M422.9,222.7c-3,0.2-5.8,1.1-8.3,2.8v22c2.1,0.6,4.3,0.9,6.4,1c7.1,0,12-6.4,12-13.8S428.2,222.7,422.9,222.7
		 M421,252.1c-2.1-0.1-4.3-0.3-6.4-0.7v13H410v-44.6h4.6v2.8c2.6-2.3,5.9-3.5,9.4-3.5c7.8,0,13.9,5.8,13.9,15.4
		C437.8,245.3,430,252.1,421,252.1"/>
	<path class="st2" d="M461.2,236.3c-1.4-0.2-2.7-0.3-4.1-0.4c-7.4,0-9.9,2.5-9.9,6.9c0,3.2,2.1,5.8,6.2,5.8c2.9,0,5.7-1.1,7.8-3
		V236.3z M461.8,251.4l-0.4-3.2c-2.1,1.8-5.1,4-9.4,4c-5.6,0-9.7-3.2-9.7-8.8c0-7.1,4-10.7,15.7-10.7c0.7,0,2.4,0.1,3.1,0.2v-4.7
		c0-3.6-2.5-5.4-6.1-5.4c-3.4,0.1-6.7,0.9-9.7,2.5l-1.5-3.2c3.7-2,7.9-3.1,12.2-3c6.1,0,9.8,2.9,9.8,8.9v23.5H461.8z"/>
	<path class="st2" d="M495.4,251.4v-22c0-4.4-1.9-6.6-5.5-6.6c-4.2,0-9,3.2-11,4.6v24h-4.7v-31.6h4.5v4.4c2.6-2,6.9-5.1,12.1-5.1
		s9.1,3,9.1,10.3v22.1H495.4z"/>
	<polygon class="st2" points="509.3,219.8 518.7,247.9 528.8,219.8 533.8,219.8 517.1,264.4 512.4,264.4 517.5,251.4 515.6,251.4 
		504.3,219.8 	"/>
</g>
</svg>
