<svg xmlns="http://www.w3.org/2000/svg" width="121.091" height="92.739" viewBox="0 0 121.091 92.739">
  <g id="heifer" transform="translate(-31 -74.994)">
    <g id="Grupo_1909" data-name="Grupo 1909" transform="translate(31 74.994)">
      <path id="Trazado_14402" data-name="Trazado 14402" d="M153.831,278.5v6.713l-5.421-5.879v3.252a2.71,2.71,0,0,0,.876,2.127h-2.919a2.774,2.774,0,0,0,.876-2.085v-4.17c0-.584-1.543-1.96-1.543-1.96h2.335l4.67,5.087V278.5a2.4,2.4,0,0,0-1.042-2h3.211a2.157,2.157,0,0,0-1.042,2" transform="translate(-97.872 -192.473)" fill="#09436a"/>
      <path id="Trazado_14403" data-name="Trazado 14403" d="M55.348,278.5v6.713l-5.421-5.879v3.252a2.9,2.9,0,0,0,.751,2.127H48.092a3.282,3.282,0,0,0,.625-2.085v-4.17c0-.584-1.418-1.96-1.418-1.96h2.252l4.67,5.087V278.5a2.432,2.432,0,0,0-.959-2h3.044a2.1,2.1,0,0,0-.959,2" transform="translate(-40.503 -192.473)" fill="#09436a"/>
      <path id="Trazado_14404" data-name="Trazado 14404" d="M263.748,278.5v6.713l-5.421-5.879v3.252a2.9,2.9,0,0,0,.751,2.127h-2.627a3.158,3.158,0,0,0,.667-2.085v-4.17c0-.584-1.418-1.96-1.418-1.96h2.252l4.67,5.087V278.5a2.432,2.432,0,0,0-.959-2h3.044a2.183,2.183,0,0,0-.959,2" transform="translate(-162.004 -192.473)" fill="#09436a"/>
      <path id="Trazado_14405" data-name="Trazado 14405" d="M100.3,284.715a2.938,2.938,0,0,0,.751-1.793v-4.8a2.285,2.285,0,0,0-.751-1.626h6.046v1.626a2,2,0,0,0-1.5-.709H102.76V280h2.377c.542,0,.959-.709.959-.709v2.168s-.375-.709-.959-.709H102.76v2.961h2.168a2.543,2.543,0,0,0,1.793-.751l-.167,1.793H100.3Z" transform="translate(-71.403 -192.476)" fill="#09436a"/>
      <path id="Trazado_14406" data-name="Trazado 14406" d="M307.2,284.656s.667-.542.667-1.042v-6.255c0-.375-.667-.959-.667-.959h3s-.751.459-.751.959v6.255h1.543a2.828,2.828,0,0,0,1.96-.751l-.375,1.793Z" transform="translate(-192.03 -192.418)" fill="#09436a"/>
      <path id="Trazado_14407" data-name="Trazado 14407" d="M129.7,278.627c0-2.168-2.877-2.127-3.169-2.127H123.4a1.726,1.726,0,0,1,.584,1.293v5.671a1.589,1.589,0,0,1-.584,1.251h2.71a1.411,1.411,0,0,1-.584-1.251v-6.088h1c.125,0,1.5.083,1.5,1.334,0,1.751-2.085,1.751-2.085,1.751s2.043,2.71,2.71,3.419a2.507,2.507,0,0,0,1.71.876h1.251l-.417-.25-.417-.292-.375-.375-.375-.417-2.127-2.669c-.042-.125,1.793-.625,1.793-2.127" transform="translate(-84.871 -192.476)" fill="#09436a"/>
      <path id="Trazado_14408" data-name="Trazado 14408" d="M175.7,280.737h-1.751l.959-2.043Zm3.878,3.294a3.258,3.258,0,0,1-.917-.917c-.375-.584-3.544-7.714-3.544-7.714s-3.378,7.255-3.5,7.547a6.691,6.691,0,0,1-.917,1.042h2.418s-.375-.667-.208-1.042c.208-.5.667-1.459.667-1.459h2.46a10.679,10.679,0,0,1,.667,1.543,1.288,1.288,0,0,1-.208,1Z" transform="translate(-112.448 -191.834)" fill="#09436a"/>
      <path id="Trazado_14409" data-name="Trazado 14409" d="M285.545,280.737h-1.751l.959-2.043Zm3.878,3.294a3.258,3.258,0,0,1-.917-.917c-.375-.584-3.544-7.714-3.544-7.714s-3.378,7.255-3.544,7.547a6.689,6.689,0,0,1-.917,1.042h2.418s-.375-.667-.208-1.042c.208-.5.667-1.459.667-1.459h2.5a10.681,10.681,0,0,1,.667,1.543,1.288,1.288,0,0,1-.208,1Z" transform="translate(-176.463 -191.834)" fill="#09436a"/>
      <path id="Trazado_14410" data-name="Trazado 14410" d="M200.872,276.4H194.2v1.585a3.215,3.215,0,0,1,1.5-.625h1.042V282.9c0,1.376-.625,1.751-.625,1.751h2.835s-.625-.25-.625-1.751v-5.5h1.042a3.215,3.215,0,0,1,1.5.625Z" transform="translate(-126.149 -192.417)" fill="#09436a"/>
      <path id="Trazado_14411" data-name="Trazado 14411" d="M82.972,276.4H76.3v1.585a3.215,3.215,0,0,1,1.5-.625h1.042V282.9c0,1.376-.625,1.751-.625,1.751h2.835s-.625-.25-.625-1.751v-5.5h1.042a3.215,3.215,0,0,1,1.5.625Z" transform="translate(-57.411 -192.417)" fill="#09436a"/>
      <path id="Trazado_14412" data-name="Trazado 14412" d="M217.9,284.615h2.961a1.728,1.728,0,0,1-.709-1.042v-5.8a1.622,1.622,0,0,1,.709-1.376H217.9a1.64,1.64,0,0,1,.667,1.376v5.8a1.747,1.747,0,0,1-.667,1.042" transform="translate(-139.966 -192.418)" fill="#09436a"/>
      <path id="Trazado_14413" data-name="Trazado 14413" d="M33,284.615h2.961a1.729,1.729,0,0,1-.709-1.042v-5.8a1.622,1.622,0,0,1,.709-1.376H33a1.64,1.64,0,0,1,.667,1.376v5.8A1.747,1.747,0,0,1,33,284.615" transform="translate(-32.166 -192.418)" fill="#09436a"/>
      <path id="Trazado_14414" data-name="Trazado 14414" d="M237.847,280.586c0,1.71-1.084,3.127-2.419,3.127s-2.418-1.418-2.418-3.127c0-1.751,1.084-3.127,2.418-3.127s2.419,1.418,2.419,3.127m1.668-.125a3.9,3.9,0,0,0-4.045-3.961,4.171,4.171,0,0,0-4.17,4.295,3.919,3.919,0,0,0,4.128,3.961,4.111,4.111,0,0,0,4.086-4.295" transform="translate(-147.779 -192.476)" fill="#09436a"/>
      <path id="Trazado_14415" data-name="Trazado 14415" d="M153.064,204.3H146.1a4.875,4.875,0,0,1,1.626,3.753v16.471a4.237,4.237,0,0,1-1.626,3.669h6.964a4.6,4.6,0,0,1-1.626-3.669V208.053c0-2.794,1.626-3.753,1.626-3.753" transform="translate(-98.105 -150.382)" fill="#09436a"/>
      <path id="Trazado_14416" data-name="Trazado 14416" d="M281.371,210.513c0-6.213-8.423-6.213-8.423-6.213H263.9a5,5,0,0,1,1.71,3.753V224.44a4.631,4.631,0,0,1-1.71,3.669h7.089s-1.626-.917-1.626-3.669V206.51h2.669c.375,0,5.254-.125,5.254,4.128,0,5.087-5.5,5.087-5.5,5.087s5.921,7.8,7.8,9.882a7.191,7.191,0,0,0,4.92,2.5h3.086l-1.209-.751-1.209-.917-1.126-1.126L283,224.107l-6.213-7.756s4.587-1.459,4.587-5.838" transform="translate(-166.785 -150.382)" fill="#09436a"/>
      <path id="Trazado_14417" data-name="Trazado 14417" d="M114.5,228.235H98.7a4.607,4.607,0,0,0,1.71-3.753V208.011A4.22,4.22,0,0,0,98.7,204.3h15.8v3.92s-1.585-1.668-2.919-1.668h-7.464v7.089h5.421c3.461,0,4.295-1.209,4.295-1.209v4.629s-.751-1.209-4.295-1.209h-5.421v10.258h7.464c1.418,0,3.669-1.543,3.669-1.543Z" transform="translate(-70.47 -150.382)" fill="#09436a"/>
      <path id="Trazado_14418" data-name="Trazado 14418" d="M185.26,206.869a21.281,21.281,0,0,0-4.462-.5h-3.878v7.172h6.171a5.007,5.007,0,0,0,3.336-1.126v4.5a4.366,4.366,0,0,0-3.336-1.209h-6.171V223.3h0c0,4.086,1.71,4.879,1.71,4.879H171.5s1.71-.792,1.71-4.879V209.079h0c0-3.878-1.71-4.879-1.71-4.879h15.8v4.045a5.672,5.672,0,0,0-2.043-1.376" transform="translate(-112.914 -150.324)" fill="#09436a"/>
      <path id="Trazado_14419" data-name="Trazado 14419" d="M55.977,198.1H48.263a4.179,4.179,0,0,1,1.876,3.753v8.215H36.879v-8.215a4.258,4.258,0,0,1,1.876-3.753H31a4.552,4.552,0,0,1,1.793,3.753v19.056A4.938,4.938,0,0,1,31,224.662h7.714a4.179,4.179,0,0,1-1.876-3.753v-8.715h13.3v8.715a4.258,4.258,0,0,1-1.876,3.753h7.714a4.837,4.837,0,0,1-1.793-3.753V201.853a4.552,4.552,0,0,1,1.793-3.753" transform="translate(-31 -146.767)" fill="#09436a"/>
      <path id="Trazado_14420" data-name="Trazado 14420" d="M205.683,84.587a9.644,9.644,0,0,0,5.8-5.045c.375-1.251-2,.334-2.919.917-.917.542-3,2.335-7.672,1.459-7.8-1.459-8.757-6.088-8.84-6.3-.083-.167-.542-.667-.834-.625-.751.083-.417,1.918-.417,1.918s.751,4.879,6.588,7.381a12.768,12.768,0,0,0,8.3.292" transform="translate(-124.121 -74.994)" fill="#09436a"/>
      <path id="Trazado_14421" data-name="Trazado 14421" d="M117.446,157.348c.751,1.251,2.335,2.168,2.877,1.918.5-.25,1.918-3.378,4.378-5.963,2.5-2.627,10.8-10.716,19.556-12.176,13.969-2.377,23.518,5.963,25.019,6.171a2.263,2.263,0,0,0,2.5-2.252c-.125-1.042-8.923-4.17-8.923-4.17a41.8,41.8,0,0,0-17.6-2.168c-12.76,1.459-22.309,12.176-22.309,12.176s3.961-11.3,2.5-11.842c-.5,0-.584,1.168-1.71,3.586-1.543,2.127-6.838,13.8-6.3,14.719" transform="translate(-81.377 -112.02)" fill="#09436a"/>
      <path id="Trazado_14422" data-name="Trazado 14422" d="M109.06,150.636c-.751-.083-3.544,1.835-3.544,1.835s6.38-9.382,6.255-10.216c-.083-.834-.751-.459-2,.5-2.46,1.918-8.673,11.384-8.673,11.384l-.417.834s-.334,1.418,2.127,2.877c1.751,1,7.506-7.089,6.255-7.214" transform="translate(-71.615 -113.94)" fill="#09436a"/>
      <path id="Trazado_14423" data-name="Trazado 14423" d="M197.969,102.987c.292-.375-1.251-1.459-.584-2,.625-.542,2.252.834,2.252.834s.667.625.792.584c.876-.208-.834-2.043-.834-2.043s-2.21-2.168-3.92-1.459c-1.168.459-.5,2.21-.167,2.752.417.667,1.918,2,2.46,1.334" transform="translate(-126.624 -88.849)" fill="#09436a"/>
      <path id="Trazado_14424" data-name="Trazado 14424" d="M90.459,122.091c-2.5-.334-3-3.044-3.711-4.128a6.067,6.067,0,0,0-3.961-2.46c-.417,0-.292,2.877.709,4.545a8,8,0,0,0,6.8,3.628c5.171-.083,12.676-6.755,20.474-10.133,7.381-3.169,17.972-1.376,17.972-1.376s1.918.417,2-.709-11.175-4.086-19.306-1.084c-8.048,2.961-16.387,12.343-20.974,11.717" transform="translate(-61.062 -94.86)" fill="#09436a"/>
      <path id="Trazado_14425" data-name="Trazado 14425" d="M223.711,106.094c.667.917-.584,3.127-.584,3.127s-4.67-1.668-5.087-1.5c-.667.334-1.918,2.5-2.043,4.253-.125,1.168,5.379,3.419,9.549,6,2.418,1.543,4.462,3.419,5.629,3.461,1.084,0,1.96-1.293,2.085-1.835.167-.751-1.876-1.918-4.92-3.378-2.585-1.251-8.715-3.878-8.715-4.337,0-.584.584-1.626.751-1.585,1.96.417,4.253,1.751,4.712,1.042a9.964,9.964,0,0,0,1.585-4.378c.459-2.627-6.8-5.171-6.8-5.171s-.542-.208-.584.083c-.292,1.084,3.127,2.418,4.42,4.212" transform="translate(-138.856 -90.58)" fill="#09436a"/>
      <path id="Trazado_14426" data-name="Trazado 14426" d="M233.3,228.235H217.5a4.607,4.607,0,0,0,1.71-3.753V208.011a4.22,4.22,0,0,0-1.71-3.711h15.8v3.92s-1.585-1.668-2.919-1.668h-7.464v7.089h5.421c3.461,0,4.295-1.209,4.295-1.209v4.629s-.751-1.209-4.295-1.209h-5.421v10.258h7.464c1.418,0,3.669-1.543,3.669-1.543Z" transform="translate(-139.733 -150.382)" fill="#09436a"/>
      <path id="Trazado_14427" data-name="Trazado 14427" d="M310.06,206.877v-1h.5a.5.5,0,1,1,0,1Zm-.584,1.585h.584v-1.168h.5l.584,1.168h.625l-.584-1.126c-.083-.125-.083-.167-.083-.167h0a.8.8,0,0,0,.542-.792.866.866,0,0,0-.959-.917h-1.168v3Zm-1.293-1.5a2.295,2.295,0,1,1,2.293,2.377,2.306,2.306,0,0,1-2.293-2.377m-.584,0A2.878,2.878,0,1,0,310.477,204a2.928,2.928,0,0,0-2.877,2.961" transform="translate(-192.263 -150.207)" fill="#09436a"/>
    </g>
  </g>
</svg>
