<svg xmlns="http://www.w3.org/2000/svg" xmlns:xlink="http://www.w3.org/1999/xlink" width="95.655" height="90.116" viewBox="0 0 95.655 90.116">
  <defs>
    <clipPath id="clip-path">
      <path id="Trazado_14344" data-name="Trazado 14344" d="M503.386,67.1c-4.293.8-8.447,3.116-10.7,6.855-1.246,2.077-1.108,3.324-.969,5.747a1.275,1.275,0,0,0,1.316,1.039,69.234,69.234,0,0,1,8.517-.138,1.674,1.674,0,0,0,1.558-.969c.762-1.869,1.9-3.67,3.808-4.051,2.354-.45,4.5,1.731,5.02,4.051a4.984,4.984,0,0,1-.069,2.666,5.451,5.451,0,0,1-3.912,3.324,11.751,11.751,0,0,1-3.808.312,1.661,1.661,0,0,0-1.7,1.489,35.606,35.606,0,0,0,0,5.435,1.45,1.45,0,0,0,.312.935,1.509,1.509,0,0,0,1.039.346,19.285,19.285,0,0,1,5.989,1.073,6.066,6.066,0,0,1,3.843,4.4,8.651,8.651,0,0,1-.692,4.051,7.346,7.346,0,0,1-1.108,2.354c-1.419,1.835-4.327,2.008-6.335.865a8.653,8.653,0,0,1-3.531-4.5,1.616,1.616,0,0,0-1.558-1.039l-9.555.277a.6.6,0,0,0-.485.173.517.517,0,0,0-.035.45c.9,5.193,4.916,9.486,9.763,11.563s10.351,2.112,15.51,1a14.752,14.752,0,0,0,5.955-2.423c2.77-2.077,4.154-5.539,4.57-8.967a15.662,15.662,0,0,0-1.039-8.274,10.54,10.54,0,0,0-5.92-5.712,2.944,2.944,0,0,0-.762-.138A10.077,10.077,0,0,0,524.574,77a16.041,16.041,0,0,0-1.973-4.016,9.686,9.686,0,0,0-2.562-3.22c-3.6-2.32-8.447-2.977-12.671-2.977a19.682,19.682,0,0,0-3.981.312" transform="translate(-490.3 -66.781)"/>
    </clipPath>
  </defs>
  <g id="heifer" transform="translate(-275.319 -39.4)">
    <g id="Grupo_1908" data-name="Grupo 1908" transform="translate(275.319 39.4)">
      <g id="Grupo_1877" data-name="Grupo 1877" transform="translate(20.218 70.105)">
        <g id="Grupo_1872" data-name="Grupo 1872">
          <g id="Grupo_1871" data-name="Grupo 1871">
            <path id="Trazado_14236" data-name="Trazado 14236" d="M558.082,243.873a2.794,2.794,0,0,0-.1.865v1.246a19.621,19.621,0,0,1-.138,2.112c-.069.935-.138,1.627-.138,2.112,0,.346.035.9.069,1.627s.069,1.246.069,1.627a.71.71,0,0,1-.692.692.71.71,0,0,1-.692-.692c0-.381-.035-.9-.069-1.627s-.069-1.246-.069-1.627c0-.346,0-.692.035-1.039a19.087,19.087,0,0,0-3.012.346l-2.977.589a13.8,13.8,0,0,1-.139,1.8c-.069.8-.138,1.385-.138,1.835a.686.686,0,0,1-1.177.485.684.684,0,0,1-.208-.485c0-.485.035-1.246.138-2.25.069-1,.138-1.731.138-2.25,0-.277,0-.658-.035-1.177s-.035-.935-.035-1.177c0-.381.035-.935.069-1.7s.069-1.316.069-1.7a.581.581,0,0,1,.208-.485.669.669,0,0,1,.969,0,.683.683,0,0,1,.208.485c0,.381-.035.935-.069,1.7s-.069,1.316-.069,1.7l.035,1.8,3.047-.589a16.041,16.041,0,0,1,3.081-.346c.069-.692.069-1.7.069-3.047a4.324,4.324,0,0,1,.173-1.108c.173-.519.381-.762.658-.762a.71.71,0,0,1,.692.692A.323.323,0,0,1,558.082,243.873Z" transform="translate(-548.7 -242.488)"/>
            <path id="Trazado_14237" data-name="Trazado 14237" d="M588.024,243.735a.439.439,0,0,1-.208-.035,7.856,7.856,0,0,0-2.32-.346,9.057,9.057,0,0,0-1.281.1,14.376,14.376,0,0,0-1.489.312c.035.312.069.554.069.727q0,.987-.1,2.7l3.116-.312c.9-.1,1.489-.138,1.7-.138a.71.71,0,0,1,.727.727.672.672,0,0,1-.658.727l-1.7.138-3.289.312a9.419,9.419,0,0,0-.035.969c0,.312-.035.589-.035.831a3.614,3.614,0,0,0,.242,1.835c.1.138.485.208,1.108.208.277,0,.727,0,1.315-.035.589,0,1.039-.035,1.316-.035a1.987,1.987,0,0,0,.415-.035,1.988,1.988,0,0,1,.415-.035.668.668,0,0,1,.762.727.708.708,0,0,1-.589.727,16.947,16.947,0,0,1-2.873.138,4.639,4.639,0,0,1-2.839-.589c-.45-.415-.692-1.385-.692-2.908,0-.312,0-.623.035-1,0-.346.035-.762.069-1.177a.569.569,0,0,1-.069-.346.552.552,0,0,1,.138-.415c.1-1.35.139-2.389.139-3.012,0-.173-.035-.415-.069-.762s-.069-.589-.069-.762c0-.554.242-.831.692-.831a.7.7,0,0,1,.519.208c.554-.138,1.108-.277,1.592-.346a10.545,10.545,0,0,1,1.419-.1,7.65,7.65,0,0,1,2.77.415.706.706,0,0,1,.485.692,1.03,1.03,0,0,1-.173.519A.921.921,0,0,1,588.024,243.735Z" transform="translate(-569.883 -241.9)"/>
            <path id="Trazado_14238" data-name="Trazado 14238" d="M612.3,245.931a7.716,7.716,0,0,1-1.142-.1l-1.142-.138c-.1,1.385-.173,2.7-.173,3.947,0,.346,0,.727.035,1.212s.035.9.035,1.212c0,.45,0,.865-.035,1.212l2.25-.035a.581.581,0,0,1,.485.208.753.753,0,0,1,0,1.039.684.684,0,0,1-.485.208c-.277,0-.658,0-1.177.035-.519,0-.935.035-1.177.035a8.334,8.334,0,0,0-1.385.138,9.023,9.023,0,0,1-1.419.138.581.581,0,0,1-.485-.208.753.753,0,0,1,0-1.039.684.684,0,0,1,.485-.208,10.918,10.918,0,0,0,1.523-.138c.035-.381.069-.831.069-1.316,0-.312,0-.727-.035-1.212s-.035-.866-.035-1.177c0-1.108.069-2.458.208-4.085l-.935.035-.935.035A.71.71,0,0,1,606.1,245a.638.638,0,0,1,.658-.727c.381-.035,1.108-.069,2.146-.069a25.238,25.238,0,0,1,3.531.312.679.679,0,0,1,.623.762.582.582,0,0,1-.242.519A.9.9,0,0,1,612.3,245.931Z" transform="translate(-586.228 -243.404)"/>
            <path id="Trazado_14239" data-name="Trazado 14239" d="M637.316,244.566a1.07,1.07,0,0,1-.277-.069,7.076,7.076,0,0,0-2.32-.312c-.312,0-.692.035-1.108.069a12.788,12.788,0,0,0-1.419.208v3.081a8.5,8.5,0,0,1,2.043-.346,16.7,16.7,0,0,1,2.25.138.638.638,0,0,1,.658.727.71.71,0,0,1-.727.727c-.242,0-.623-.035-1.108-.069s-.866-.069-1.108-.069a11.282,11.282,0,0,0-2.077.415l-.069,4.881a.727.727,0,1,1-1.454,0c0-.935.035-2.32.069-4.189s.069-3.254.069-4.189V243.7a.71.71,0,0,1,.727-.727.552.552,0,0,1,.415.139c.589-.1,1.108-.173,1.592-.242a8.171,8.171,0,0,1,1.246-.069,7.7,7.7,0,0,1,1.869.242c.935.208,1.419.485,1.419.865a1.03,1.03,0,0,1-.173.519A1.875,1.875,0,0,1,637.316,244.566Z" transform="translate(-602.246 -242.488)"/>
            <path id="Trazado_14240" data-name="Trazado 14240" d="M662.624,243.735a.439.439,0,0,1-.208-.035,7.856,7.856,0,0,0-2.32-.346,9.055,9.055,0,0,0-1.281.1,14.373,14.373,0,0,0-1.489.312c.035.312.069.554.069.727q0,.987-.1,2.7l3.116-.312c.9-.1,1.489-.138,1.7-.138a.71.71,0,0,1,.727.727.672.672,0,0,1-.658.727l-1.7.138-3.289.312a9.386,9.386,0,0,0-.035.969c0,.312-.035.589-.035.831a3.614,3.614,0,0,0,.242,1.835c.1.138.485.208,1.108.208.277,0,.727,0,1.315-.035.589,0,1.039-.035,1.316-.035a1.987,1.987,0,0,0,.415-.035,1.987,1.987,0,0,1,.416-.035.668.668,0,0,1,.762.727.708.708,0,0,1-.589.727,16.95,16.95,0,0,1-2.874.138,4.639,4.639,0,0,1-2.839-.589c-.45-.415-.692-1.385-.692-2.908,0-.312,0-.623.035-1,0-.346.035-.762.069-1.177a.569.569,0,0,1-.069-.346.551.551,0,0,1,.138-.415c.1-1.35.138-2.389.138-3.012,0-.173-.035-.415-.069-.762s-.069-.589-.069-.762c0-.554.242-.831.692-.831a.7.7,0,0,1,.519.208c.554-.138,1.108-.277,1.593-.346a10.544,10.544,0,0,1,1.419-.1,7.65,7.65,0,0,1,2.77.415.706.706,0,0,1,.485.692,1.031,1.031,0,0,1-.173.519A.849.849,0,0,1,662.624,243.735Z" transform="translate(-618.657 -241.9)"/>
            <path id="Trazado_14241" data-name="Trazado 14241" d="M688.436,254.265a.721.721,0,0,1-.519-.242,11.553,11.553,0,0,0-5.228-3.116l.069,1.385.035,1.385a.727.727,0,1,1-1.454,0c0-.381-.035-.935-.069-1.662s-.069-1.281-.069-1.662a16.574,16.574,0,0,1,.138-1.939,17.073,17.073,0,0,0,.139-1.939c0-.242-.035-.589-.069-1.073s-.069-.831-.069-1.073a.943.943,0,0,1,.242-.692.781.781,0,0,1,.762-.346l1.7.138a4.29,4.29,0,0,1,1.627.485c1.9,1,2.873,2.25,2.873,3.739a2.409,2.409,0,0,1-.969,1.9,4.837,4.837,0,0,1-1.973,1,11.469,11.469,0,0,1,3.289,2.493.648.648,0,0,1,.173.485.7.7,0,0,1-.208.519C688.816,254.2,688.643,254.265,688.436,254.265Zm-4.5-9.382-1.039-.069.069.865a8.157,8.157,0,0,1,.035.865,11.865,11.865,0,0,1-.1,1.419l-.138,1.419h.623a5.962,5.962,0,0,0,2.7-.485,2.369,2.369,0,0,0,.727-.589,1.2,1.2,0,0,0,.381-.658,2.372,2.372,0,0,0-1.108-1.835A4.063,4.063,0,0,0,683.935,244.883Z" transform="translate(-635.329 -242.805)"/>
          </g>
        </g>
        <g id="Grupo_1876" data-name="Grupo 1876" transform="translate(26.657 15.164)">
          <g id="Grupo_1873" data-name="Grupo 1873">
            <path id="Trazado_14242" data-name="Trazado 14242" d="M628.539,286.462h-.1a2.917,2.917,0,0,0-.935-.138,2.989,2.989,0,0,0-.519.035,4.719,4.719,0,0,0-.589.138c0,.138.035.208.035.312,0,.277,0,.623-.035,1.073l1.246-.1c.381-.035.589-.069.658-.069a.491.491,0,0,1,.208.069.295.295,0,0,1-.208.485l-.692.069-1.316.1a1.3,1.3,0,0,1-.035.381v.346a1.379,1.379,0,0,0,.1.727c.035.069.208.069.45.069h1.039a.376.376,0,0,0,.173-.035,1.5,1.5,0,0,0,.173-.035.275.275,0,0,1,.312.312c0,.173-.069.242-.242.277a6.792,6.792,0,0,1-1.142.069,1.109,1.109,0,0,1-1.419-1.419v-.381a1.971,1.971,0,0,1,.035-.45.208.208,0,0,1-.035-.138.264.264,0,0,1,.069-.173c.035-.554.069-.935.069-1.212a1.2,1.2,0,0,0-.035-.312,1.2,1.2,0,0,1-.035-.312c0-.242.1-.346.277-.346a.492.492,0,0,1,.208.069,5.627,5.627,0,0,1,.658-.138,3.169,3.169,0,0,1,.554-.035,3.232,3.232,0,0,1,1.108.173c.138.035.173.138.173.277a.492.492,0,0,1-.069.208C628.677,286.427,628.608,286.462,628.539,286.462Z" transform="translate(-625.7 -285.7)"/>
            <path id="Trazado_14243" data-name="Trazado 14243" d="M638.873,287.542a.325.325,0,0,1-.277-.208c-.069-.1-.1-.208-.138-.208-.035-.035-.138-.035-.312-.035a1.264,1.264,0,0,0-.9.623,2.655,2.655,0,0,0-.692,1.593.834.834,0,0,0,.242.623.792.792,0,0,0,.589.277,1.224,1.224,0,0,0,.589-.138c.1-.069.277-.173.519-.346a.46.46,0,0,1,.242-.1.3.3,0,0,1,.208.1.254.254,0,0,1,.069.208.247.247,0,0,1-.1.208,2.221,2.221,0,0,1-1.523.658,1.3,1.3,0,0,1-1-.45,1.383,1.383,0,0,1-.381-1.039,3.211,3.211,0,0,1,.8-1.973,1.834,1.834,0,0,1,1.35-.831h.242c.069,0,.138.035.208.035a.261.261,0,0,1,.242-.138c.138,0,.208.069.242.242a2.623,2.623,0,0,1,.035.554.492.492,0,0,1-.069.208C639.047,287.508,638.977,287.542,638.873,287.542Z" transform="translate(-632.434 -286.158)"/>
          </g>
          <g id="Grupo_1874" data-name="Grupo 1874" transform="translate(7.236 0.242)">
            <path id="Trazado_14244" data-name="Trazado 14244" d="M648.4,290.831a1.6,1.6,0,0,1-1.316-.519,2.285,2.285,0,0,1-.45-1.212,14.37,14.37,0,0,1-.035-1.454v-.658c0-.173.035-.277.035-.346a.253.253,0,0,1,.242-.208c.173,0,.277.173.277.485v1.662c0,1.142.415,1.731,1.212,1.731q1.142,0,1.143-2.908v-.519a1.013,1.013,0,0,1,.069-.312c.069-.1.139-.173.242-.173.173,0,.277.138.277.381v.692C650.1,289.758,649.543,290.831,648.4,290.831Z" transform="translate(-646.6 -286.4)"/>
          </g>
          <g id="Grupo_1875" data-name="Grupo 1875" transform="translate(11.217 0.104)">
            <path id="Trazado_14245" data-name="Trazado 14245" d="M661.285,291.158c-.173,0-.312-.208-.45-.658-.035-.173-.1-.485-.173-.9-.208.035-.45.069-.762.138l-.762.173a11.06,11.06,0,0,1-.485,1.073c-.069.1-.139.173-.242.173a.492.492,0,0,1-.208-.069.3.3,0,0,1-.1-.208,4.684,4.684,0,0,1,.415-1.039.26.26,0,0,1-.035-.173c0-.138.1-.242.277-.312a13.264,13.264,0,0,1,.831-1.385c.45-.727.727-1.073.831-1.073q.208,0,.312.312l.173.969.415,1.973.173.45a.633.633,0,0,1,.069.312.3.3,0,0,1-.1.208A1.5,1.5,0,0,1,661.285,291.158Zm-1-3.254-.8,1.316a9.006,9.006,0,0,1,1.039-.208Z" transform="translate(-658.1 -286.588)"/>
            <path id="Trazado_14246" data-name="Trazado 14246" d="M673.427,290.431a2.139,2.139,0,0,1-1.246.312,2.716,2.716,0,0,1-.485-.069.9.9,0,0,1-.485-.208h-.035a.491.491,0,0,1-.208-.069.254.254,0,0,1-.069-.208c0-.208,0-.485.035-.9.035-.381.035-.692.035-.9v-2.008a.374.374,0,0,1,.1-.242.44.44,0,0,1,.242-.138,3.022,3.022,0,0,1,.45.173c.277.138.45.208.519.242a3.3,3.3,0,0,1,1.385.831,2.029,2.029,0,0,1,.658,1.489,1.884,1.884,0,0,1-.242.935A2.434,2.434,0,0,1,673.427,290.431Zm-.623-2.977a9.715,9.715,0,0,0-1.35-.658v1.662l-.035,1.558a.121.121,0,0,0,.069.035,1.2,1.2,0,0,0,.623.173,1.622,1.622,0,0,0,.935-.208,1.329,1.329,0,0,0,.45-.519,1.432,1.432,0,0,0,.173-.658A1.541,1.541,0,0,0,672.8,287.454Z" transform="translate(-666.469 -286)"/>
            <path id="Trazado_14247" data-name="Trazado 14247" d="M684.339,290.9a2.08,2.08,0,0,1-1.35-.485,1.734,1.734,0,0,1-.589-1.316,3.106,3.106,0,0,1,.589-1.8,1.985,1.985,0,0,1,1.627-.9,2.007,2.007,0,0,1,1.385.415,1.812,1.812,0,0,1,.485,1.385,3.111,3.111,0,0,1-.519,1.766A1.939,1.939,0,0,1,684.339,290.9Zm.277-3.877a1.438,1.438,0,0,0-1.177.692,2.283,2.283,0,0,0-.45,1.385,1.116,1.116,0,0,0,.415.9,1.481,1.481,0,0,0,.969.312,1.384,1.384,0,0,0,1.143-.692,2.416,2.416,0,0,0,.415-1.385,1.3,1.3,0,0,0-.312-.969A1.658,1.658,0,0,0,684.616,287.023Z" transform="translate(-673.987 -286.262)"/>
            <path id="Trazado_14248" data-name="Trazado 14248" d="M698.673,290.827a.3.3,0,0,1-.208-.1,4.652,4.652,0,0,0-2.077-1.246l.035.554v.554a.492.492,0,0,1-.069.208.254.254,0,0,1-.208.069.493.493,0,0,1-.208-.069.254.254,0,0,1-.069-.208,5.172,5.172,0,0,0-.035-.658,5.171,5.171,0,0,1-.035-.658c0-.173.035-.45.069-.762.035-.346.069-.589.069-.762a1.991,1.991,0,0,0-.035-.415,2.16,2.16,0,0,1-.035-.415.393.393,0,0,1,.1-.277.338.338,0,0,1,.312-.138l.692.069a3.013,3.013,0,0,1,.658.173c.762.415,1.142.9,1.142,1.489a1.021,1.021,0,0,1-.381.762,2.472,2.472,0,0,1-.8.415,4.212,4.212,0,0,1,1.316,1,.346.346,0,0,1,0,.415A.566.566,0,0,0,698.673,290.827Zm-1.8-3.739-.415-.035.035.346c0,.138.035.242.035.346a3.366,3.366,0,0,1-.035.554l-.069.554h.277a2.178,2.178,0,0,0,1.073-.208,1.9,1.9,0,0,0,.312-.242.414.414,0,0,0,.138-.277.859.859,0,0,0-.45-.727A2.543,2.543,0,0,0,696.873,287.089Z" transform="translate(-682.748 -286.327)"/>
          </g>
        </g>
      </g>
      <path id="Trazado_14249" data-name="Trazado 14249" d="M601,142.769l.138-.069a.18.18,0,0,0-.138.069" transform="translate(-562.676 -106.938)" fill="#1d1e1c"/>
      <path id="Trazado_14250" data-name="Trazado 14250" d="M593.2,160.4v.069c.1.312.069.173,0-.069" transform="translate(-557.576 -118.51)" fill="#010101"/>
      <path id="Trazado_14251" data-name="Trazado 14251" d="M607.367,77.386c-.831,1.627-.831,3.116-1.108,4.847a32.063,32.063,0,0,0-.658,7.686l23.507.554v.069l.035-1.039.589-24.3c-6.682.727-13.952,2.943-18.695,7.651a16.924,16.924,0,0,0-3.67,4.535" transform="translate(-565.65 -56.268)" fill="#f18a48"/>
      <path id="Trazado_14252" data-name="Trazado 14252" d="M673.5,90.142v.069l26.553.623a30.662,30.662,0,0,0-.9-6.751c-.762-3.15-1.35-6.612-3.185-9.278a25.7,25.7,0,0,0-5.643-6.128c-3.981-2.908-10.282-4.327-15.094-3.912l-1.142.1L673.5,89.1Z" transform="translate(-610.076 -55.938)" fill="#dbdf79"/>
      <path id="Trazado_14253" data-name="Trazado 14253" d="M680.49,161.422c5.989-2.077,12.879-4.5,15.856-10.594a24.829,24.829,0,0,0,2.6-11.805l-26.553-.623-.589,24.753a25.709,25.709,0,0,0,8.69-1.731" transform="translate(-608.965 -104.126)" fill="#e74c0f"/>
      <path id="Trazado_14254" data-name="Trazado 14254" d="M606.1,136.6c.035.381.069.727.1,1.108a46.1,46.1,0,0,0,5.92,17,16.657,16.657,0,0,0,7.27,6.3l.312.485c2.8.935,5.435.415,8.274.519h.831l.589-24.822Z" transform="translate(-566.01 -102.949)" fill="#71b694"/>
      <path id="Trazado_14255" data-name="Trazado 14255" d="M668.174,82.654c.727-1.489.866-4.051,1.073-5.747a39.784,39.784,0,0,0-.069-6.093c-1.316-.623-3.289.1-4.778-.069.45.692,1.212,2.146.1,2.562a1.471,1.471,0,0,0,1.073,1.316,5.512,5.512,0,0,0-.277,5.262,2.932,2.932,0,0,1,.035,2.354c.692.866,1.766.035,2.666.312" transform="translate(-604.127 -59.77)" fill="#f18a48"/>
      <path id="Trazado_14256" data-name="Trazado 14256" d="M655.4,85.46c1.939-.1,2.493-.1,2.631-2.077a41.347,41.347,0,0,0-.1-4.154c-.069-1.489.069-3.358-.069-4.743-.173-1.7-1.108-1.627-2.7-1.316a8.28,8.28,0,0,0-2.423.589c-1.385.762-.727.969-.208,1.973a2.893,2.893,0,0,1,.415,1.073c.069.242-.1.9-.035,1.073.208.554.866.623,1.142,1.073a6.393,6.393,0,0,1,.381,2.6,13.688,13.688,0,0,0,1.039,4.881" transform="translate(-595.961 -61.365)" fill="#ed702a"/>
      <path id="Trazado_14257" data-name="Trazado 14257" d="M646.161,88.119c.554-.208,2.112-.658,2.354-1.419.208-.727-.8-2.8-.969-3.67-.242-.969-.208-2.146-.554-3.116-.381-1.108-1.073-2.043-1.523-3.15-.658-1.731-.831-2.043-2.7-1.039-2.666,1.454-1.039,2.735.069,5.055a50.078,50.078,0,0,1,2.008,4.812c.312.866.519,2.077,1.419,2.389" transform="translate(-589.039 -62.778)" fill="#f18a48"/>
      <path id="Trazado_14258" data-name="Trazado 14258" d="M637.948,93.721c.485-.9,2.043-1.9,2.32-2.7.312-.969-.519-2.008-1-2.908a61.788,61.788,0,0,1-3.531-7.513,4.7,4.7,0,0,0-2.943,2.32c-.485,1.316.727,2.25,1.489,3.254a23.136,23.136,0,0,1,3.462,7.062" transform="translate(-583.387 -66.337)" fill="#ed702a"/>
      <path id="Trazado_14259" data-name="Trazado 14259" d="M634.267,100.543a5.042,5.042,0,0,1-1.489.935c-1.454-.762-2.631-2.458-3.739-3.67a29.19,29.19,0,0,1-2.25-2.389c-.554-.831-.554-.554-.1-1.593,1.523-3.358,3.15-1,4.6,1.177a22.368,22.368,0,0,1,2.908,4.951" transform="translate(-579.256 -73.885)" fill="#f18a48"/>
      <path id="Trazado_14260" data-name="Trazado 14260" d="M624.252,105.168a12.639,12.639,0,0,1-1.627,1.973c-1.454-1.7-3.67-2.735-5.47-4.051A22.218,22.218,0,0,1,613,99.871c1-.589,2.181-1.731,3.358-1.973,2.077-.45,2.631,2.008,3.947,3.358a54.039,54.039,0,0,1,4.085,3.877" transform="translate(-570.521 -77.61)" fill="#ed702a"/>
      <path id="Trazado_14261" data-name="Trazado 14261" d="M615.394,111.548a12.441,12.441,0,0,1-1.385,2.493c-3.808-2.285-7.651-3.324-11.909-4.431a14.661,14.661,0,0,0,1.385-1.177c.485-.554.865-2.216,1.419-2.493,1.177-.623,2.735,1.039,3.7,1.558,1.039.623,2.181,1.108,3.22,1.766a25.163,25.163,0,0,1,3.427,3.22" transform="translate(-563.395 -82.814)" fill="#f18a48"/>
      <path id="Trazado_14262" data-name="Trazado 14262" d="M614.013,120.759a9.027,9.027,0,0,1-.692,3.289c-3.531-1.662-7.686-.727-11.321-1.662,1-2.458-1.523-6.716,3.185-5.02,1.142.415,2.008,1.246,3.22,1.627.831.242,1.662.45,2.493.727a21.111,21.111,0,0,1,2.977,1.35" transform="translate(-563.33 -90.12)" fill="#ed702a"/>
      <path id="Trazado_14263" data-name="Trazado 14263" d="M608.192,150c1.212-.415,3.081-1.385,4.328-1.385.969,0,1.35.554,2.112.969,2.389,1.316,3.947-1.246,6.3-1.039a4.878,4.878,0,0,1-.035.692c1.731,1.489,3.808-1.627,5.643-.865,1,.415.346,1.281,2.147,1.35.623.035,1.108-.277,1.731-.1a1.593,1.593,0,0,0-.312,1.627,20.739,20.739,0,0,1-2.493-.208c-.935-.035-1.766.242-2.631.242.138-.312.138-.9.277-1.246-1.316.242-5.816,2.008-6.509.1-1.523,0-4.466,2.32-5.747,1.454-.831-.519-.173-1.108-1.316-1.108-1.212,0-2.8,1.039-3.877,1.454-.173-.727-.1-1.454-.312-2.146" transform="translate(-566.925 -110.565)" fill="#157d61"/>
      <path id="Trazado_14264" data-name="Trazado 14264" d="M612.223,161.649c1.143-.415,2.908-1.316,4.12-1.316.935,0,1.281.519,2.008.935,2.25,1.246,3.739-1.212,5.989-.969a4.663,4.663,0,0,1-.035.658c1.662,1.419,3.6-1.558,5.366-.8.935.415.346,1.212,2.043,1.316.589.035,1.039-.277,1.662-.1a1.521,1.521,0,0,0-.277,1.558,14.225,14.225,0,0,1-2.389-.208c-.865-.035-1.662.242-2.493.208.139-.312.139-.866.277-1.177-1.246.242-5.539,1.9-6.2.1-1.454,0-4.224,2.181-5.47,1.385-.8-.519-.173-1.073-1.246-1.073-1.143,0-2.666,1-3.67,1.385-.173-.692-.1-1.385-.312-2.043" transform="translate(-569.606 -118.27)" fill="#157d61"/>
      <path id="Trazado_14265" data-name="Trazado 14265" d="M616.589,174.573a15.121,15.121,0,0,1,3.843-1.246c.866,0,1.177.485,1.87.831,2.077,1.142,3.462-1.108,5.539-.935a4.194,4.194,0,0,1-.035.623c1.523,1.281,3.358-1.454,4.985-.762.865.346.312,1.108,1.9,1.177.554.035.969-.242,1.523-.1a1.446,1.446,0,0,0-.277,1.419c-.692.069-1.489-.173-2.216-.173-.8-.035-1.558.208-2.32.208.1-.277.138-.762.242-1.073-1.177.208-5.124,1.766-5.747.138-1.35,0-3.947,2.043-5.055,1.316-.727-.45-.138-.969-1.142-.969-1.073,0-2.458.935-3.427,1.281a17.416,17.416,0,0,0-.277-1.869" transform="translate(-572.483 -126.728)" fill="#157d61"/>
      <path id="Trazado_14266" data-name="Trazado 14266" d="M623.515,186.943a12.3,12.3,0,0,1,3.254-1.039c.727,0,1,.45,1.593.762,1.8,1,2.943-.935,4.708-.762-.035.1.035.381-.035.519,1.316,1.142,2.839-1.246,4.224-.623.762.312.277.969,1.627,1.039.485.035.831-.208,1.316-.069a1.179,1.179,0,0,0-.208,1.246,17.883,17.883,0,0,1-1.87-.173c-.692-.035-1.315.173-1.973.173.1-.242.1-.692.208-.935-1,.173-4.362,1.489-4.881.069-1.142,0-3.323,1.731-4.293,1.073-.623-.415-.138-.865-.969-.865-.9,0-2.077.8-2.873,1.108-.139-.554-.069-1.108-.242-1.627" transform="translate(-577.125 -135.048)" fill="#157d61"/>
      <path id="Trazado_14267" data-name="Trazado 14267" d="M692.69,176.526c-4.674-.9-9.521-1.419-14.16-.035-2.077.623-4.674,1.489-5.989,3.22-.969,1.246-2.77,3.739-2.423,5.331,1.869-.727,2.908-3.15,4.57-4.362a18.53,18.53,0,0,1,6.785-3.047,13.232,13.232,0,0,1,7.028.9c1.108.415,1.246.727,2.25-.035a4.952,4.952,0,0,0,1.316-1.9" transform="translate(-607.836 -128.473)" fill="#b6be0c"/>
      <path id="Trazado_14268" data-name="Trazado 14268" d="M690.739,180.868c-1.869-.346-3.358-1.523-5.262-1.731-2.216-.208-3.774-.415-5.989.346-3.5,1.246-10.04,5.193-9.07,9.8,1.731.173,3.5-2.735,4.778-3.7a23.6,23.6,0,0,1,4.466-2.7,16.286,16.286,0,0,1,5.955-1.662c1.246-.069,4.12,1.454,4.6-.173" transform="translate(-607.997 -130.634)" fill="#dbdf79"/>
      <path id="Trazado_14269" data-name="Trazado 14269" d="M692.762,185.3a22,22,0,0,0-3.081-.519c-1.973-.485-3.185-.9-5.262-.277a24.8,24.8,0,0,0-4.916,1.869c-1.593.9-4.985,3.877-4.085,6.024a19.148,19.148,0,0,1,3.116-.381c1.073-2.562,4.258-4.224,6.612-5.331a12.475,12.475,0,0,1,4.4-.727c.865-.069,2.562.312,2.977-.45" transform="translate(-611.232 -134.065)" fill="#b6be0c"/>
      <path id="Trazado_14270" data-name="Trazado 14270" d="M698.529,189.128a14.642,14.642,0,0,0-7.132.208c-2.112.623-6.128,3.116-6.2,5.608a18.1,18.1,0,0,0,7.166-1.8c1.8-1,4.847-2.423,5.989-4.085" transform="translate(-617.726 -137.06)" fill="#dbdf79"/>
      <path id="Trazado_14271" data-name="Trazado 14271" d="M695.168,83.106c-1.177-.208-.589-2.666.623-2.8l.173.069c1,.208.45,2.943-.8,2.735m-2.077-1.558c-1.108.969-3.7-.969-.346-2.077l-.727.415c1.073-.589,1.87,1,1.073,1.662m12.152-1.454A25.625,25.625,0,0,0,694.025,70.4l-.415.865a11.83,11.83,0,0,0-5.089,3.6c-2.7,2.977,1.869,1.662,3.531.969-2.389,1.212-4.6,4.6-5.158,7.236-.866,3.981,1.939,1.142,3.566.381-.035,1.177-1.593,2.112-1.9,3.289-.45,1.766-.173,4.189,2.043,3.7,2.077-.45,3.185-2.77,5.089-3.358,2.077-.623.692,1.869,2.354,1.869.589-.658,1.627-2.562,2.493-2.423,1,.138,1.246,2.839,1.593,3.7,1.35-2.008,1.9-4.327,3.289-6.37,1.143-1.731.9-1.939-.173-3.774" transform="translate(-618.727 -59.668)" fill="#b6be0c"/>
      <path id="Trazado_14272" data-name="Trazado 14272" d="M594.546,137.5c-.1.415-1.142-.069-1.246.277.623,0,1.108.312.969.519l.692-.138c.208-.138-.069-.45-.415-.658" transform="translate(-557.641 -103.538)"/>
      <path id="Trazado_14273" data-name="Trazado 14273" d="M600.7,140.469l.173-.069a.264.264,0,0,0-.173.069" transform="translate(-562.48 -105.434)"/>
      <path id="Trazado_14274" data-name="Trazado 14274" d="M603.412,138.4l-1.627.415c.139-.138.1-.277.45-.312-.727-.069-.8.208-1.385.173-.173-.381,1.039-.035.692-.381a2.189,2.189,0,0,0-1.385.346l-.658-.277.208.415c.277.138.554-.346.692-.035.069.173-.173.208-.381.242.415-.069,1.142.346,2.008.312,1-.035.8-.692,1.385-.9" transform="translate(-561.695 -104.061)"/>
      <path id="Trazado_14275" data-name="Trazado 14275" d="M611,139.869l.1.138-.069-.208Z" transform="translate(-569.214 -105.042)"/>
      <path id="Trazado_14276" data-name="Trazado 14276" d="M613.805,138.385l-.831.277c-.1-.035-.139-.138-.208-.208.035.1-.208.277-.173.346.381.381,1.038-.1,1.489-.173,1.177.173-.069.208.415.589-.346,0-.346-.1-.8-.138.727.45,1.627.035,2.112-.069-.139-.035-.173-.173-.415-.138l.485-.138a3.4,3.4,0,0,0-2.077-.346" transform="translate(-570.253 -104.111)"/>
      <path id="Trazado_14277" data-name="Trazado 14277" d="M611.7,138.257c.312-.035.415,0,.45.069-.069-.138-.173-.208-.45-.069" transform="translate(-569.671 -103.984)"/>
      <path id="Trazado_14278" data-name="Trazado 14278" d="M622.042,140.071c-.069-.035-.138,0-.242,0a.293.293,0,0,0,.242,0" transform="translate(-576.275 -105.209)"/>
      <path id="Trazado_14279" data-name="Trazado 14279" d="M621.2,138.539l.589.035-.242-.173c-.069,0-.381.035-.346.138" transform="translate(-575.877 -104.126)"/>
      <path id="Trazado_14280" data-name="Trazado 14280" d="M645.383,139.159q-.052-.26-.727-.208c.069-.208.658-.173.935-.277-.589-.138,0-.242-.138-.45-.658-.035-.969.242-1.7.173.035-.069.035-.138-.069-.242a9.667,9.667,0,0,1-3.15.1,10.3,10.3,0,0,0-2.285.1c-2.943-.138-5.989.035-9.14-.173l-.45.415c-.138-.208-.762,0-.658-.277.173.069.346,0,.554,0-.658-.381-1.8,0-2.6-.138.1.069.208.415-.035.485.069-.45-.969,0-1.177-.519-.8-.138-.035.381-.866.312-.1.277.8.138.969.346-.277.208-.762-.1-.727.173,1.35.138,3.843-.381,5.92-.519l-.242.312a7.293,7.293,0,0,1,3.6.242c-.208-.242,1.558.138,1.419-.415a2.039,2.039,0,0,0,.727.173l.1-.173c.554,0,.45.277,1.073.277-.415-.242.035-.312.242-.485.692.277,1.523.519,2.181.727a.62.62,0,0,0-.312-.277c.415.069.346-.138.485-.208.415,0,.381.312.346.45.762.1,1.108-.485,1.662-.277l-.208-.242c.8-.035,1.454.208,2.32.138.415.346-.727.277-1.073.415.173.069.554.1.658.208.381-.173,1-.381,1.454-.554-.485.381.623.346.9.381" transform="translate(-577.632 -103.951)"/>
      <path id="Trazado_14281" data-name="Trazado 14281" d="M678.642,141.5a.743.743,0,0,0-.242.138.675.675,0,0,1,.277-.035.127.127,0,0,0-.035-.1" transform="translate(-613.28 -106.153)"/>
      <path id="Trazado_14282" data-name="Trazado 14282" d="M686,141.1l.035.035c.069,0,.035-.035-.035-.035" transform="translate(-618.249 -105.892)"/>
      <path id="Trazado_14283" data-name="Trazado 14283" d="M671.8,138.535h.138l-.242-.035Z" transform="translate(-608.899 -104.192)"/>
      <path id="Trazado_14284" data-name="Trazado 14284" d="M668.558,141.177a4.177,4.177,0,0,0-.658-.277c.069.1.138.208.658.277" transform="translate(-606.415 -105.761)"/>
      <path id="Trazado_14285" data-name="Trazado 14285" d="M654.173,140.8c-.173.035-.069.1-.173.208.346-.035.45-.1.173-.208" transform="translate(-597.327 -105.695)"/>
      <path id="Trazado_14286" data-name="Trazado 14286" d="M681.8,141.5l.658-.069.242-.035Z" transform="translate(-615.503 -106.088)"/>
      <path id="Trazado_14287" data-name="Trazado 14287" d="M699.182,138.164a6.155,6.155,0,0,0-2.146-.173c-1.315.138-.173.623-1.419.658l.208-.589c-1.246.035-3.012-.1-4.051.381-.1-.069-.312-.173,0-.242-.831,0-.45.831-1.558.623,1.039-.346-.346-.346-.035-.727l.173-.035c-.692.035-1.627.208-2.112.173-.035.138.381.381-.242.415.242.035.139.208.139.346a13.518,13.518,0,0,0,1.385-.242c.346.208-.242.069.1.277l.519-.173c.381.035-.381.208.208.242a1.587,1.587,0,0,1,1-.208l-.139.069c.346-.069.866.035.692-.312l.415.346-.069-.242c.969.1,1.316.623,2.6.381-.312-.069-.035-.173.139-.242-.519-.173-.658.173-1.142.208-.069-.242.762-.485.173-.623.658.277,1.246-.035,1.523.554.8.035,1.108-.242,1.9-.1l-.035.069c.138-.381.658.173,1.246-.208l-.415-.1c.035-.138.242-.138.519-.173-.035.069-.035.069.069.138.1-.277,1-.312,1.108-.381a6.657,6.657,0,0,0-1.316.242c.242-.173.173-.415.554-.346" transform="translate(-619.556 -103.856)"/>
      <path id="Trazado_14288" data-name="Trazado 14288" d="M696.6,140.839l.242-.138a.868.868,0,0,0-.242.138" transform="translate(-625.179 -105.63)"/>
      <path id="Trazado_14289" data-name="Trazado 14289" d="M725.993,138.36c.519.069-.138.242.346.346.519-.173-.589-.381-.069-.658.312.173.831-.1,1.039-.1a.4.4,0,0,0,0,.589c.208-.1.623.069.969.1-.831-.242.692-.138-.035-.381.069-.208.831-.346,1.142-.208-.035.138-.277.1-.485.138-.173.277.519.173.623.415.8-.381,3.289-.346,2.6-1-.277-.138-.485.035-.8.035.8.138,0,.346-.069.45-.346-.1-.935.1-.8-.138l.554-.242a61.222,61.222,0,0,0-6.2-.035l.866.035c-.1.173-.519.173-.831.277l.415.415c-.242-.035-.485.035-.485-.138-.312.173-.173.277,0,.45-.658.069-.761-.1-1.281.173,1.073.346.935-.277,2.181.035Z" transform="translate(-642.766 -103.567)"/>
      <path id="Trazado_14290" data-name="Trazado 14290" d="M723.4,140l.139.1.277-.208Z" transform="translate(-642.701 -105.107)"/>
      <path id="Trazado_14291" data-name="Trazado 14291" d="M724.739,137.8c0,.1-.139.138-.139.242.519.069.45-.069.139-.242" transform="translate(-643.485 -103.734)"/>
      <path id="Trazado_14292" data-name="Trazado 14292" d="M742.7,140.373l.658-.069-.416-.1c0,.1-.173.138-.242.173" transform="translate(-655.319 -105.303)"/>
      <path id="Trazado_14293" data-name="Trazado 14293" d="M751.269,137.6a6.52,6.52,0,0,1-2.32,0c-.519.277.242.519,0,.762.519.069.45-.415.969-.485.208.242.762-.035,1.281,0-.069-.069-.035-.173.069-.277" transform="translate(-659.284 -103.603)"/>
      <path id="Trazado_14294" data-name="Trazado 14294" d="M760,138.169l.173-.069Z" transform="translate(-666.63 -103.93)"/>
      <path id="Trazado_14295" data-name="Trazado 14295" d="M755.8,138.5Z" transform="translate(-663.884 -104.192)"/>
      <path id="Trazado_14296" data-name="Trazado 14296" d="M754.1,140.238h.312l-.035-.138Z" transform="translate(-662.773 -105.238)"/>
      <path id="Trazado_14297" data-name="Trazado 14297" d="M671.479,216.342l.069-.242-.173.1c-.035,0,0,.138.1.138" transform="translate(-608.679 -154.927)"/>
      <path id="Trazado_14298" data-name="Trazado 14298" d="M672.575,188c-.173,0-.242.1-.242.312-.208-.035-.138-.312-.277-.415-.138.242-.242-.035-.45.035-.035.277.208.45.138.762a.218.218,0,0,0-.242.035,2.221,2.221,0,0,1,.069,1.419,2.135,2.135,0,0,0,.035,1.039c-.208,1.281-.069,2.666-.346,4.051l.381.208c-.208.069-.035.346-.277.277.069-.069.035-.138.035-.242-.381.277-.035.8-.173,1.142.069-.035.45-.069.485.035-.45-.069-.035.415-.554.485-.139.346.381.035.312.415.277.069.139-.346.346-.415.208.138-.1.346.173.346.173-.589-.312-1.731-.415-2.666l.242.1a1.646,1.646,0,0,1,.312-1.593c-.242.069.173-.692-.381-.658.138-.1.1-.138.173-.312l-.173-.069c.035-.242.277-.173.277-.45-.242.173-.312-.035-.485-.138.277-.312.519-.658.762-.9a.682.682,0,0,0-.277.138c.1-.173-.138-.173-.208-.208,0-.173.312-.138.45-.138.1-.346-.45-.519-.242-.762l-.242.069c-.035-.346.242-.623.208-1,.346-.173.277.346.381.485.069-.069.1-.242.208-.277a3.622,3.622,0,0,1-.519-.692c.485.173.485-.312.519-.415" transform="translate(-608.528 -136.489)"/>
      <path id="Trazado_14299" data-name="Trazado 14299" d="M675.6,191.235l.139.1c-.035-.035-.035-.069-.035-.138Z" transform="translate(-611.449 -138.647)"/>
      <path id="Trazado_14300" data-name="Trazado 14300" d="M675.3,188.125h.035c-.035-.069-.035-.035-.035,0" transform="translate(-611.253 -136.61)"/>
      <path id="Trazado_14301" data-name="Trazado 14301" d="M672.4,194.138l.035-.069V194Z" transform="translate(-609.357 -140.478)"/>
      <path id="Trazado_14302" data-name="Trazado 14302" d="M674.977,195.4a2.086,2.086,0,0,0-.277.277c.1-.035.208-.035.277-.277" transform="translate(-610.861 -141.393)"/>
      <path id="Trazado_14303" data-name="Trazado 14303" d="M674.3,201.99c.035.069.1.035.173.1.035-.173-.035-.208-.173-.1" transform="translate(-610.599 -145.663)"/>
      <path id="Trazado_14304" data-name="Trazado 14304" d="M675.6,189.315l-.035-.312-.069-.1Z" transform="translate(-611.384 -137.143)"/>
      <path id="Trazado_14305" data-name="Trazado 14305" d="M672.712,172.146c-.312.242-.138.623-.242.935.1.589.623.1.623.658l-.589-.138c0,.554-.173,1.316.312,1.835-.069.035-.173.138-.242-.035,0,.381.831.242.589.727-.346-.485-.346.138-.727-.035l-.035-.069a5.555,5.555,0,0,1,.138.935c.138.035.381-.138.381.138.035-.1.208-.069.346-.035-.138-.312-.035-.45-.208-.623.208-.138.069.1.277-.035l-.173-.242c.069-.173.173.173.242-.069a.4.4,0,0,1-.173-.45l.069.069c-.069-.173.035-.381-.277-.312l.346-.173-.242.035c.1-.415.658-.554.415-1.108-.069.138-.173,0-.242-.069-.173.208.138.312.173.519-.242,0-.485-.381-.623-.1.277-.277,0-.554.554-.658.069-.346-.208-.485-.069-.866h.069c-.381-.1.173-.277-.173-.554l-.1.173c-.139-.035-.139-.1-.173-.242.069.035.069.035.138-.035-.277-.069-.277-.45-.346-.519-.069.173.138.381.208.589-.069-.1-.277-.069-.242-.242" transform="translate(-609.357 -125.963)"/>
      <path id="Trazado_14306" data-name="Trazado 14306" d="M675.238,183.238l-.138-.138c.035.035.069.1.138.138" transform="translate(-611.122 -133.351)"/>
      <path id="Trazado_14307" data-name="Trazado 14307" d="M673.6,163.052c.069-.208.242.069.346-.138-.173-.242-.381.242-.658,0,.173-.138-.1-.381-.1-.45a.881.881,0,0,0,.589.035c-.1-.1.1-.277.1-.415-.242.346-.1-.312-.381,0-.208-.035-.346-.381-.173-.519.138.035.1.138.1.208.277.1.173-.208.45-.242-.381-.381-.277-1.489-.935-1.212-.139.1.035.208.035.346.139-.346.346.035.45.069-.1.138.069.415-.139.346l-.242-.242a11.618,11.618,0,0,0-.173,2.735l.035-.381c.173.069.173.242.242.381l.45-.173c-.035.1,0,.208-.138.208a.367.367,0,0,0,.45.035c.069.312-.1.346.138.589.381-.45-.277-.415.069-.969Z" transform="translate(-609.661 -118.427)"/>
      <path id="Trazado_14308" data-name="Trazado 14308" d="M674.969,171.173l.139-.035L674.9,171Z" transform="translate(-610.992 -125.44)"/>
      <path id="Trazado_14309" data-name="Trazado 14309" d="M672.8,170.444c.1,0,.138.069.242.069.069-.208-.069-.173-.242-.069" transform="translate(-609.619 -125.023)"/>
      <path id="Trazado_14310" data-name="Trazado 14310" d="M675.673,162.412l-.069-.312-.1.173c.1.035.173.1.173.138" transform="translate(-611.384 -119.621)"/>
      <path id="Trazado_14311" data-name="Trazado 14311" d="M673.135,156.9c0,.415.208.589-.035,1.039.277.242.519-.069.762.035.069-.208-.381-.208-.485-.45.242-.069-.035-.346.035-.554a.466.466,0,0,1-.277-.069" transform="translate(-609.815 -116.222)"/>
      <path id="Trazado_14312" data-name="Trazado 14312" d="M674.727,137.67c0-.173-.173-.381-.035-.519.138.035.208.138.138.242.346-.035-.035-.208.208-.381-.035,0-.1.069-.173.035.1-.485-.277-.312-.035-.935-.1-.1-.069-.208-.312-.208.312-.346.312-.173.589-.589a3.287,3.287,0,0,1-.727.1c.45-.589,0-.623.312-1,0,.035.069.1.035.208.415-.035-.035-.346.035-.554l.346.035c-.035-.208-.242-.589.035-.8l.173.069a8.935,8.935,0,0,1-.173-1.593l.242-.208c-.208-.623-.173.589-.623.1.623-.035-.173-.312.1-.658.242-.138.1.346.415.208-.312-.1-.069-.208-.173-.381.312.069.069-.381.416-.242l-.519-.692a.345.345,0,0,0,.138-.415c-.035.346-.45-.138-.623.242a5.53,5.53,0,0,1-.069,2.25c.415.1-.035.45.312.589l-.381.069c.069.45.242-.1.381.035.035.208-.208.346-.381.312-.035.346.1.035.312.242l-.485.173a11.448,11.448,0,0,1-.035,3.6l.277-.069c-.208.519.589.935-.069,1.35l.242.173c-.138-.1-.45.069-.623-.1.069.138-.035.312.035.45l.138-.242c.242.208.069.381-.138.45.277.415.519-.208.762-.277-.485-.589.554-.519.381-1.073-.173-.346-.312.035-.45,0" transform="translate(-610.403 -98.307)"/>
      <path id="Trazado_14313" data-name="Trazado 14313" d="M673.769,155l-.069-.1Z" transform="translate(-610.207 -114.914)"/>
      <path id="Trazado_14314" data-name="Trazado 14314" d="M677.025,129.131v-.173c-.069-.069-.035.035,0,.173" transform="translate(-612.354 -97.939)"/>
      <path id="Trazado_14315" data-name="Trazado 14315" d="M674.1,157Z" transform="translate(-610.468 -116.287)"/>
      <path id="Trazado_14316" data-name="Trazado 14316" d="M675.7,157.535l.1.1.035-.138Z" transform="translate(-611.515 -116.614)"/>
      <path id="Trazado_14317" data-name="Trazado 14317" d="M678.238,125h0" transform="translate(-613.084 -95.365)"/>
      <path id="Trazado_14318" data-name="Trazado 14318" d="M679.5,112.7v.1a.065.065,0,0,0,0-.1" transform="translate(-613.999 -87.324)"/>
      <path id="Trazado_14319" data-name="Trazado 14319" d="M677.639,80.792a1.634,1.634,0,0,0-.381-.865l.138.035c-.069-.138-.277-.658-.554-.346l.138.069c.208.381-.277.242-.381.519.035.346.589.554.45.866,0,.138-.138.1-.242.069-.069.277.381.45.415.658-1.142,0,.242.935-.485,1.316.069.277-.035.658.139,1-.277-.208-.035.346-.346.242.658.138-.346,1,.45,1.108-.277.45.069.035-.173.554-.1,0-.1-.1-.1-.138-.173.208.346.346-.069.519-.1.45.208.1.415.381-.138.45-.242.312-.589.554.381.069.173.312.381.554.035-.069.138-.346.242-.138-.1.519.242.45.312.935-.45.208.035-.485-.346-.069-.173-.312-.138-.554-.45-.762a4.118,4.118,0,0,0,.138,1.419c-.069.242-.208-.138-.242.069-.208.45.415.727.173,1.073l-.208-.1c.277.242-.1.8.035,1.246.1-.035.208-.069.277,0-.554-.035.242.623-.173,1,.346,0,.554.415.554.658a.41.41,0,0,1-.346.035c.242-.415-.381-.45-.519-.8.173.277-.069.727.173,1l-.277-.1c-.069.381.623.381.312.762l-.208-.069c-.035.8-.45,1.731-.035,2.423.173.069.589-.242.727-.242-.1-.381-.415-.658-.519-.935l.312.035c-.208-.069-.312-.45-.519-.277-.138-.242.312-.173.138-.45.346.035.346.208.658.242l-.138-.242c.138.069.138-.138.242-.069-.381-.485.208-.623.035-1.073l-.069.242c-.173,0-.173-.173-.208-.277.277-.1.242-.173.381-.415-.138-.208-.45-.346-.45-.623.346.069.208-.45.519-.485-.346-.069-.1-.554-.312-.589-.069-.138,0-.346.173-.346l.069.1.035-.138c.035.035.069,0,.069.035,0-.138-.242-.138-.069-.312.1,0,.1.1.1.173.069-.346-.485-.658-.173-.935-.173-.069-.138-.485-.519-.415.139-.1.45-.035.415-.346-.312-.208.138-.312-.035-.554.312.312.1,0,.381.277.139-.208-.277-.519-.173-.866l.242-.069c-.1-.138-.346-.312-.069-.415h-.242c.138-.242.069-.554.346-.8l-.415-.312c.485-.381.1-.935-.277-1.281.035-.138.138-.346.208-.346a.757.757,0,0,1,.138.173c.035-.208.277-.45-.069-.623-.1-.242.242-.138.346-.312-.485-.485.45-1.281-.312-1.489,0,.173-.208.519-.173.866-.069-.1-.242-.035-.242-.173,0-.346.277-.519.173-.865l.485.069c.554-.589-.554-1.212.173-1.627" transform="translate(-611.757 -65.629)"/>
      <path id="Trazado_14320" data-name="Trazado 14320" d="M679.7,95.742l.277-.242h-.208a.292.292,0,0,1-.069.242" transform="translate(-614.13 -76.078)"/>
      <path id="Trazado_14321" data-name="Trazado 14321" d="M679.7,95.238l-.1-.138a.312.312,0,0,0,.035.173Z" transform="translate(-614.064 -75.817)"/>
      <path id="Trazado_14322" data-name="Trazado 14322" d="M680.509,79.777a.368.368,0,0,0,.035-.277.183.183,0,0,0-.035.277" transform="translate(-614.627 -65.617)"/>
      <path id="Trazado_14323" data-name="Trazado 14323" d="M679.9,79.5l.069.035L680,79.4Z" transform="translate(-614.261 -65.552)"/>
      <path id="Trazado_14324" data-name="Trazado 14324" d="M678.73,55.073l-.277-.415c.138-.069,0-.519.242-.381-.346-.277.035-.762-.485-.623.1,1.212-.312,2.839.035,4.258l-.208-.242c.346.762-.519.969.242,1.593l-.415-.1c-.138.312.554.658.1.969l.173-.035c0,.1-.069.138-.1.208l.069-.035a.579.579,0,0,1,0,.623c-.138,0-.035-.1-.069-.208-.138.1.138.312.1.485-.138.138-.173,0-.242-.035.138.554-.312.8.277,1.212.1.035.208-.138.277.069.208-.346,0-.658-.138-1v.1c-.589-.312.138-.208-.069-.623.242.138.208.312.346.381.485-.45-.312-.727.312-1V60.3c.069-.069-.035-.208-.1-.312a.509.509,0,0,0-.173.208c-.035-.1-.312-.173-.415-.242.277-.1-.1-.173.035-.381.242-.069.208.173.346.277l-.138-.242c0-.208.277-.208.415-.312-.173-.208-.138.1-.381-.069.312-.208.312-1.246.1-1.731.035.173.277.069.208.277.069-.069-.035-.346-.242-.346a1.214,1.214,0,0,1,.208-1.073l-.208.069c-.312-.277.277-.658.138-1.108h0c-.035-.138-.485-.312-.381-.589.208.208.173.346.415.346" transform="translate(-612.918 -48.703)"/>
      <path id="Trazado_14325" data-name="Trazado 14325" d="M679.063,52.608l.242.173c.069-.173-.242-.381-.415-.381.035.1-.069.242.069.277.069,0,.138.035.1-.069" transform="translate(-613.597 -47.899)"/>
      <path id="Trazado_14326" data-name="Trazado 14326" d="M679.084,41.027a.33.33,0,0,0-.242-.069,4,4,0,0,1-.173,1.731c-.1.208.312.277.381.554l-.277.1c.173.173-.173.589.277.485.035,0-.208-.138-.1-.277l.138.035-.035-.312.173.1c.312-.381-.554-.312-.346-.8l.381.035c.035-.346-.069-.519.173-.8,0,0-.173,0-.1.035a.251.251,0,0,1-.277.069c-.277-.519.208.1.381-.242-.242-.45-.381-1.281-.069-1.489-.242.173-.45-.138-.415-.381.138-.1.208.1.346.138.035-.1.139-.208.1-.312a.437.437,0,0,1-.623-.242c-.277.554.381,1.073.312,1.627" transform="translate(-613.445 -39.4)"/>
      <path id="Trazado_14327" data-name="Trazado 14327" d="M679,43.338c0,.069.035.1.069.1V43.2Z" transform="translate(-613.672 -41.884)"/>
      <path id="Trazado_14328" data-name="Trazado 14328" d="M690.009,145c-1.593,2.389-8.447,6.2-11.009,3.877,3.289.485,8.517-1.142,10.836-3.531" transform="translate(-613.672 -108.441)"/>
      <path id="Trazado_14329" data-name="Trazado 14329" d="M687.373,153.217c.1,1.973,1.073,4.743,2.839,5.574,1.627-.208,2.008-2.112,2.423-3.393.242-.762,1.039-2.181.8-3.012-.381-1.246-1.385-.381-2.458.1a29.032,29.032,0,0,1-3.774,1.039" transform="translate(-619.033 -112.85)"/>
      <path id="Trazado_14330" data-name="Trazado 14330" d="M699.977,157.929c1.246,2.25,3.5,3.116,5.747,4.051,1.8.727,3.67,1.766,5.608.762,1.246-.658,2.839-3.289,3.6-4.535a4.832,4.832,0,0,0,.519-3.774c-3.22-.9-6.2.242-9.521.173-1.177-.035-3.289-1.454-4.154-1.108-1.835.727.242,4.085-2.077,4.327" transform="translate(-627.206 -113.961)"/>
      <path id="Trazado_14331" data-name="Trazado 14331" d="M706.087,171.777c.138,2.112-.692,7.27.762,9.07-.762-3.012,1.593-5.47,2.943-7.789-1.35-.969-1.7-1.454-3.358-1.558" transform="translate(-631.308 -125.767)"/>
      <path id="Trazado_14332" data-name="Trazado 14332" d="M640.437,65.8a45.3,45.3,0,0,0-4.916-3.116,17.408,17.408,0,0,0-5.574-1.281c-4.085-.623-8.793.035-12.844.623a10.118,10.118,0,0,0-3.427.935,3.77,3.77,0,0,0-.381-.45l-.9-.8c-3.012-3.531-8.828-1.7-10.7.969a54.139,54.139,0,0,0-3.6,6.162c-.658,1.281-.692,4.639.138,6.82a13.137,13.137,0,0,0-.727,3.67c-.554,5.262.45,10.351,1.9,15.371.692,2.458,2.423,5.262,3.358,7.651a8.6,8.6,0,0,0,2.977,4.016c1.731,1.489,5.193,4.951,7.686,4.466-1.212-1.039-3.323-1.8-3.774-3.531a2.227,2.227,0,0,0,2.181.035c-2.181-1.281-3.981-1.9-5.539-4.085a31.585,31.585,0,0,1-4.051-9.624c-1.35-4.951-3.5-11.009-.831-15.787,3.5-.138,7.755-3.7,9.347-6.3a17.928,17.928,0,0,0,2.354-4.916l.1.312.242-.519c5.678-.865,12.394-3.081,18.245-1.454,2.77.762,6.439,1.8,8.586,3.7,1.212,1.073,2.043,2.6,3.289,3.635.45.381.346.866,1.142.866a9.527,9.527,0,0,0-.935-2.389c1.627.346,2.285,1.835,3.358,2.735.139-3.116-4.431-6.232-6.716-7.72" transform="translate(-560.292 -52.712)" fill="#e74c0f"/>
      <path id="Trazado_14333" data-name="Trazado 14333" d="M642.672,100.235a3.011,3.011,0,0,0-.277-.485c-.346-.969-.346-2.146-.727-3.15a7.862,7.862,0,0,0-1.523,3.254h-.035l-.415.1a11.318,11.318,0,0,1-.935-2.631,4.662,4.662,0,0,0-.969,3.185c-.035,0-.069.035-.1.035a5.625,5.625,0,0,1-1.973-2.25c-.727.866-.485,2.077-.485,3.185-.035,0-.035.035-.069.035a17.132,17.132,0,0,0-2.146-1.7c-.208.866-.069,2.112-.346,3.012-.485-.658-.831-1.454-1.281-2.181a4.231,4.231,0,0,0,.727,2.943c-.8-.519-1.731-.762-2.562-1.281-.381.865.242,2.077.692,3.081-.208.208-.381.415-.589.658-.692-.242-1.35-.554-2.008-.831-.069.9.589,1.731.623,2.666-1.246-.1-2.423.312-3.67.173.208,1.419,1.662,1.9,2.458,2.943l1.177.035a.708.708,0,0,1,0-.381,22.147,22.147,0,0,0,6.924.208c2.146-.138,4.258.208,6.37.138l.138-.035c.589-2.216.381-4.847.865-7.166.208-1.142.623-2.458.138-3.566" transform="translate(-578.105 -76.797)" fill="#f4af7b"/>
      <path id="Trazado_14334" data-name="Trazado 14334" d="M613.268,65.834c-4.743-.692-15.3,9.105-9.486,13.363,6.509,4.778,10.94-9.036,11.044-12.948" transform="translate(-563.381 -56.66)" fill="#fff"/>
      <path id="Trazado_14335" data-name="Trazado 14335" d="M605.3,91.55s2.32-.762,2.146-2.25a1.947,1.947,0,0,1-2.146,2.25" transform="translate(-565.487 -72.025)"/>
      <path id="Trazado_14336" data-name="Trazado 14336" d="M621.4,74.25s2.32-.762,2.146-2.25a1.969,1.969,0,0,1-2.146,2.25" transform="translate(-576.013 -60.714)"/>
      <path id="Trazado_14337" data-name="Trazado 14337" d="M612.6,85.2a12.647,12.647,0,0,1,2.181,2.7c-.623-.727-1.073-1.662-1.662-2.32" transform="translate(-570.26 -69.344)"/>
      <g id="Grupo_1882" data-name="Grupo 1882" transform="translate(80.027 45.733)">
        <g id="Grupo_1878" data-name="Grupo 1878" transform="translate(0 10.481)">
          <path id="Trazado_14338" data-name="Trazado 14338" d="M726.285,205.384a.427.427,0,0,1,.138.277.676.676,0,0,1-.035.277.312.312,0,0,1-.208.208.685.685,0,0,1-.381.069,1.683,1.683,0,0,0-.242-.1l-.208-.1a2.473,2.473,0,0,1-.519.623,2.987,2.987,0,0,1-.658.381,2.6,2.6,0,0,1-.554.173,1.881,1.881,0,0,1-.623,0,1.719,1.719,0,0,1-.831-.415,2.062,2.062,0,0,1-.485-.727,2.441,2.441,0,0,1-.208-.865,3.7,3.7,0,0,1,.035-.865,7.507,7.507,0,0,1,.242-.831,3.259,3.259,0,0,1,.416-.762l.173-.173a1.509,1.509,0,0,1,.242-.208l.312-.208a1.4,1.4,0,0,1,.312-.173,2.217,2.217,0,0,1,.589-.173.572.572,0,0,1,.519.208c.069.208.173.381.208.485s.1.242.139.346a1.689,1.689,0,0,0,.1.242c.035.069.035.1.069.173a6.908,6.908,0,0,0,.346.727c.138.242.242.485.381.692a.588.588,0,0,0,.208.208c.1.069.173.138.277.208h0a.723.723,0,0,0,.208.138A.607.607,0,0,1,726.285,205.384Zm-1.662-.138c-.138-.208-.277-.45-.415-.692a6.908,6.908,0,0,1-.346-.727c-.069-.173-.138-.346-.208-.485s-.1-.277-.173-.415a1.907,1.907,0,0,0-.312.242l-.208.208a2.993,2.993,0,0,0-.346.554,1.406,1.406,0,0,0-.138.658,4.184,4.184,0,0,0,.035.658,1.256,1.256,0,0,0,.242.589.68.68,0,0,0,.312.312.789.789,0,0,0,.381.1,1.245,1.245,0,0,0,.381-.069,3.049,3.049,0,0,0,.346-.208A2.9,2.9,0,0,0,724.623,205.246Z" transform="translate(-721.459 -201.775)" fill="#010101"/>
        </g>
        <g id="Grupo_1879" data-name="Grupo 1879" transform="translate(2.68 5.228)">
          <path id="Trazado_14339" data-name="Trazado 14339" d="M732.316,186.773a.476.476,0,0,1,.069.415,2.467,2.467,0,0,1-.589,1.385.8.8,0,0,1-.381.138l-.519.1c-.138.035-.242.035-.346.069a.606.606,0,0,1-.173.035c-.035.035-.069.069-.069.1a1.449,1.449,0,0,0-.069.208,2.208,2.208,0,0,0-.069.242.439.439,0,0,0-.035.208c-.035.138-.035.208-.069.242l-.069.069a1.428,1.428,0,0,1-.381.242.247.247,0,0,1-.346-.1.293.293,0,0,1-.069-.208.59.59,0,0,1,.035-.242l.277-.9a1.781,1.781,0,0,1,.138-.346,1.512,1.512,0,0,1,.208-.242,1.108,1.108,0,0,1,.45-.173,3.451,3.451,0,0,1,.554-.069c.069,0,.138-.035.208-.035h.069a.563.563,0,0,0,.1-.208c.035-.1.069-.208.1-.346.035-.1.069-.208.1-.346a.442.442,0,0,1,.173-.242A.631.631,0,0,1,732,186.6.708.708,0,0,1,732.316,186.773Zm3.843,5.3a.479.479,0,0,1,.1.415.5.5,0,0,1-.208.312.615.615,0,0,1-.346.138.631.631,0,0,1-.381-.173.914.914,0,0,0-.173-.208,3.356,3.356,0,0,1-.242-.312c-.1-.138-.242-.277-.416-.485s-.381-.45-.623-.8a1.916,1.916,0,0,1-.208-.277,1.193,1.193,0,0,0-.277-.312.817.817,0,0,0-.312-.208.276.276,0,0,0-.312.069,1.069,1.069,0,0,0-.381.554,2.774,2.774,0,0,0-.1.8c0,.1.035.208.035.277.035.069.069.173.138.312.242.277.45.589.692.866s.45.554.692.831a.479.479,0,0,1,.1.415.5.5,0,0,1-.208.312.585.585,0,0,1-.346.1.631.631,0,0,1-.381-.173L731.762,193c-.208-.242-.415-.485-.623-.762-.208-.242-.415-.519-.623-.8a.533.533,0,0,1-.069-.381.753.753,0,0,1,.173-.277.393.393,0,0,1,.277-.1.455.455,0,0,1,.346.1,2.5,2.5,0,0,1,.312-.692,2.53,2.53,0,0,1,.485-.554,1.772,1.772,0,0,1,.727-.346,1.288,1.288,0,0,1,.865.1,1.428,1.428,0,0,1,.381.242,3.119,3.119,0,0,1,.312.346,3.622,3.622,0,0,1,.277.381,3,3,0,0,0,.242.346Z" transform="translate(-729.2 -186.6)" fill="#010101"/>
        </g>
        <g id="Grupo_1880" data-name="Grupo 1880" transform="translate(8.458 4.12)">
          <path id="Trazado_14340" data-name="Trazado 14340" d="M746.275,184.092a1.385,1.385,0,0,1,.658-.519,2.022,2.022,0,0,1,1.558-.035,7.82,7.82,0,0,1,.762.381c.1.069.173.138.277.208l.242.242a2.615,2.615,0,0,1,.45.8,2.442,2.442,0,0,1,.208.866,2.259,2.259,0,0,1-.069.831,2.164,2.164,0,0,1-.346.762,1.385,1.385,0,0,1-.658.519,2.024,2.024,0,0,1-1.558.1,2.166,2.166,0,0,1-.692-.346,2.669,2.669,0,0,1-.727-.8,3.625,3.625,0,0,1-.415-1,2.628,2.628,0,0,1-.035-1.039A1.574,1.574,0,0,1,746.275,184.092Zm1.073,2.527a1.476,1.476,0,0,0,.415.381,1.9,1.9,0,0,0,.519.277.989.989,0,0,0,.554.035.841.841,0,0,0,.485-.312.94.94,0,0,0,.208-.589,1.958,1.958,0,0,0-.1-.623,1.923,1.923,0,0,0-.312-.589,2.348,2.348,0,0,0-.415-.415,2.583,2.583,0,0,0-.415-.242,1.066,1.066,0,0,0-.45-.1,1.684,1.684,0,0,0-.415.035.44.44,0,0,0-.312.242.827.827,0,0,0-.173.485,2.621,2.621,0,0,0,.035.519,3.048,3.048,0,0,0,.173.519A.6.6,0,0,0,747.348,186.62Z" transform="translate(-745.891 -183.4)" fill="#010101"/>
        </g>
        <g id="Grupo_1881" data-name="Grupo 1881" transform="translate(10.366)">
          <path id="Trazado_14341" data-name="Trazado 14341" d="M754.793,175.966a.539.539,0,0,1-.485-.208.482.482,0,0,1-.035-.485.75.75,0,0,1,.277-.312,2.5,2.5,0,0,0,.692-.312.785.785,0,0,0,.381-.554.48.48,0,0,0,0-.312.558.558,0,0,0-.138-.242c-.069-.069-.138-.1-.208-.173a.762.762,0,0,0-.277-.035l-.312.1c-.1.035-.138.1-.208.173a.725.725,0,0,0-.138.208.757.757,0,0,1-.138.173c-.069.1-.139.173-.208.277a.81.81,0,0,1-.242.242c-.1.069-.173.138-.277.208a1.24,1.24,0,0,1-.381.138,1.685,1.685,0,0,1-.415.035,1.024,1.024,0,0,1-.346-.069,1.448,1.448,0,0,1-.415-.277,1.082,1.082,0,0,1-.312-.381,2.409,2.409,0,0,1-.173-.45,2.286,2.286,0,0,1-.035-.485,2.213,2.213,0,0,1,.346-.9,2.413,2.413,0,0,1,.623-.692,1.23,1.23,0,0,1,.312-.138.513.513,0,0,1,.242.035.284.284,0,0,1,.173.173.5.5,0,0,1,.069.242.761.761,0,0,1-.035.277.465.465,0,0,1-.208.242,1.978,1.978,0,0,0-.242.277,1.168,1.168,0,0,0-.208.415.573.573,0,0,0,0,.415c.035.138.173.208.346.277a.5.5,0,0,0,.242-.069.724.724,0,0,0,.208-.138c.069-.069.139-.1.173-.173.069-.069.1-.138.173-.208a6.189,6.189,0,0,1,.45-.485,2.459,2.459,0,0,1,.485-.346,2.592,2.592,0,0,1,.554-.138,1.458,1.458,0,0,1,.623.138,1.148,1.148,0,0,1,.485.346,1.6,1.6,0,0,1,.312.519,1.819,1.819,0,0,1,.138.589,1.434,1.434,0,0,1-.1.554,2.864,2.864,0,0,1-.727,1,3.65,3.65,0,0,1-1.039.519Z" transform="translate(-751.4 -171.5)" fill="#010101"/>
        </g>
      </g>
      <path id="Trazado_14342" data-name="Trazado 14342" d="M491.873,79.521c-.138-2.423-.277-3.67.969-5.747,2.25-3.739,6.4-6.058,10.7-6.855a30.382,30.382,0,0,1,12.948.9,14.426,14.426,0,0,1,3.981,1.869,6.484,6.484,0,0,1,1.9,2.389,18.172,18.172,0,0,1,2.423,4.674,10.042,10.042,0,0,1-6.855,12.5,1.445,1.445,0,0,1,1.454-.069,10.433,10.433,0,0,1,5.92,5.712,15.706,15.706,0,0,1,1.039,8.274c-.415,3.427-1.835,6.889-4.57,8.967a14.753,14.753,0,0,1-5.955,2.423,26.042,26.042,0,0,1-15.51-1c-4.847-2.077-8.863-6.4-9.763-11.563a.675.675,0,0,1,.035-.45c.1-.138.312-.138.485-.173l9.555-.277a1.648,1.648,0,0,1,1.558,1.039,8.828,8.828,0,0,0,3.531,4.5c2.008,1.177,4.916.969,6.335-.865a8.161,8.161,0,0,0,1.108-2.354,8.727,8.727,0,0,0,.692-4.051,6.066,6.066,0,0,0-3.843-4.4,19.285,19.285,0,0,0-5.989-1.073,1.57,1.57,0,0,1-1.039-.346,1.45,1.45,0,0,1-.312-.935,28.516,28.516,0,0,1,0-5.435,1.606,1.606,0,0,1,1.662-1.489,11.752,11.752,0,0,0,3.808-.312,5.451,5.451,0,0,0,3.912-3.324,5.353,5.353,0,0,0,.069-2.666c-.519-2.32-2.666-4.5-5.02-4.051-1.9.381-3.047,2.181-3.808,4.051a1.558,1.558,0,0,1-1.558.969,69.23,69.23,0,0,0-8.517.138,1.116,1.116,0,0,1-1.35-.969" transform="translate(-490.453 -57.157)" fill="#71b694"/>
      <g id="Grupo_1898" data-name="Grupo 1898" transform="translate(0 9.479)">
        <g id="Grupo_1883" data-name="Grupo 1883" clip-path="url(#clip-path)">
          <path id="Trazado_14343" data-name="Trazado 14343" d="M481.312,185.029a52.072,52.072,0,0,1,7.409-2.112,10.838,10.838,0,0,1,3.774.381c4.258.623,6.682-1.9,10.8-2.216-.069.138.139.381,0,.623,3.185.9,6.439-2.216,9.728-1.939,1.766.138.727,1,3.877.692a28.728,28.728,0,0,1,3.012-.485c-.589.519-.831,1-.346,1.454-1.35.242-2.943.173-4.362.346-1.592.173-3.012.589-4.57.762.208-.312.173-.8.346-1.108-2.285.485-9.9,2.943-11.321,1.489-2.631.346-7.478,2.908-9.832,2.458-1.489-.277-.415-.9-2.389-.692-2.112.242-4.743,1.489-6.543,2.077-.381-.554-.312-1.212-.8-1.766" transform="translate(-483.631 -140.64)" fill="#177d62"/>
        </g>
        <g id="Grupo_1884" data-name="Grupo 1884" clip-path="url(#clip-path)">
          <path id="Trazado_14345" data-name="Trazado 14345" d="M481.312,171.229a52.072,52.072,0,0,1,7.409-2.112,10.838,10.838,0,0,1,3.774.381c4.258.623,6.682-1.9,10.8-2.216-.069.138.139.381,0,.623,3.185.9,6.439-2.216,9.728-1.939,1.766.138.727,1,3.877.692a28.732,28.732,0,0,1,3.012-.485c-.589.519-.831,1-.346,1.454-1.35.242-2.943.173-4.362.346-1.592.173-3.012.589-4.57.762.208-.312.173-.8.346-1.108-2.285.485-9.9,2.943-11.321,1.489-2.631.346-7.478,2.908-9.832,2.458-1.489-.277-.415-.9-2.389-.692-2.112.242-4.743,1.489-6.543,2.077-.381-.554-.312-1.212-.8-1.766" transform="translate(-483.631 -131.617)" fill="#177d62"/>
        </g>
        <g id="Grupo_1885" data-name="Grupo 1885" clip-path="url(#clip-path)">
          <path id="Trazado_14347" data-name="Trazado 14347" d="M489.342,194.458a51.359,51.359,0,0,1,7.028-2.008,9.854,9.854,0,0,1,3.6.381c4.051.589,6.37-1.8,10.282-2.112-.069.138.139.381,0,.589,3.012.866,6.128-2.077,9.244-1.835,1.7.138.692.969,3.7.658a26.138,26.138,0,0,1,2.873-.45c-.554.485-.8.969-.346,1.385-1.281.242-2.8.173-4.154.312-1.523.173-2.873.554-4.327.727.173-.277.173-.762.346-1.073-2.181.45-9.417,2.8-10.767,1.385-2.527.312-7.132,2.77-9.347,2.354-1.419-.277-.381-.865-2.285-.658-2.008.242-4.5,1.419-6.232,1.973-.381-.554-.312-1.142-.762-1.662" transform="translate(-488.927 -146.988)" fill="#177d62"/>
        </g>
        <g id="Grupo_1886" data-name="Grupo 1886" clip-path="url(#clip-path)">
          <path id="Trazado_14349" data-name="Trazado 14349" d="M498.469,204.979a49.235,49.235,0,0,1,6.543-1.869,9.22,9.22,0,0,1,3.323.312c3.739.519,5.92-1.7,9.521-1.973-.069.138.1.346,0,.519,2.77.762,5.678-1.939,8.586-1.7,1.558.1.623.865,3.393.589a22.5,22.5,0,0,1,2.666-.415c-.519.45-.727.9-.346,1.246-1.212.208-2.6.173-3.843.312-1.419.138-2.666.519-4.016.658.173-.277.138-.692.346-.969-2.008.45-8.724,2.6-9.971,1.316-2.32.312-6.612,2.562-8.655,2.181-1.316-.242-.346-.8-2.077-.589a36.413,36.413,0,0,0-5.782,1.835c-.346-.485-.242-1.039-.658-1.523" transform="translate(-495.007 -154.047)" fill="#177d62"/>
        </g>
        <g id="Grupo_1887" data-name="Grupo 1887" clip-path="url(#clip-path)">
          <path id="Trazado_14351" data-name="Trazado 14351" d="M511.3,215.044a40.8,40.8,0,0,1,5.539-1.558,8.127,8.127,0,0,1,2.839.312c3.22.485,5.02-1.419,8.1-1.662-.035.1.1.312,0,.45,2.389.692,4.812-1.662,7.3-1.419,1.316.1.554.762,2.943.554.831-.069,1.419-.346,2.25-.346-.415.381-.623.762-.242,1.108-1,.173-2.216.138-3.289.242-1.212.1-2.25.415-3.427.554.139-.242.1-.589.242-.831-1.7.381-7.409,2.181-8.482,1.073-1.973.242-5.608,2.181-7.339,1.835-1.108-.208-.312-.692-1.8-.519a28.078,28.078,0,0,0-4.916,1.558c-.312-.415-.242-.935-.623-1.316" transform="translate(-503.441 -161.169)" fill="#177d62"/>
        </g>
        <g id="Grupo_1888" data-name="Grupo 1888" clip-path="url(#clip-path)">
          <path id="Trazado_14353" data-name="Trazado 14353" d="M547.518,63.8c2.008-1.142,7.686-3.774,6.82-5.92-.589-1.454-3.878-3.843-4.57-5.193-.831-1.558.762-9.174-.138-10.594-1.108-1.731-7.27,7.582-8.794,8.759-.692.554-6.959-4.431-7.478-3.739-1.073,1.523,4.916,7.028,5.989,7.824a4.3,4.3,0,0,1,1,.935c.173.208.381,1,.519,1.142.519.485.658.935,1.177,1.246a7.351,7.351,0,0,1,2.389,1.835c1,1.593,2.112,3.566,3.635,4.674" transform="translate(-518.368 -50.502)" fill="#ed712d"/>
        </g>
        <g id="Grupo_1889" data-name="Grupo 1889" clip-path="url(#clip-path)">
          <path id="Trazado_14355" data-name="Trazado 14355" d="M526.555,74.523c.485-.519,1.939-1.8,1.731-2.735-.173-.865-2.285-2.6-2.977-3.393a29.522,29.522,0,0,0-2.216-3.047c-1-1-2.216-1.627-3.254-2.6-1.593-1.489-8.551-10.04-10.005-7.963-2.112,2.943-7.72,1.142-5.331,3.047,1.593,1.281,17.76,13.156,19.283,14.679.762.762,1.662,1.939,2.735,1.8" transform="translate(-499.205 -58.729)" fill="#f18a49"/>
        </g>
        <g id="Grupo_1890" data-name="Grupo 1890" clip-path="url(#clip-path)">
          <path id="Trazado_14357" data-name="Trazado 14357" d="M557.856,61.122c.658-.312,2.423-1.039,2.6-1.973.139-.866-1.246-3.22-1.592-4.224-.381-1.108-.485-2.493-1-3.635-.589-1.281-1.523-2.285-2.146-3.566-.969-1.973-4.466-12.394-6.543-10.975-3.012,2.008-7.616-1.662-6.058.969,1.039,1.766,11.979,18.591,12.879,20.53.45.969.865,2.389,1.939,2.631" transform="translate(-524.621 -47.06)" fill="#f18a49"/>
        </g>
        <g id="Grupo_1891" data-name="Grupo 1891" clip-path="url(#clip-path)">
          <path id="Trazado_14359" data-name="Trazado 14359" d="M508.007,80.53c.035-1.212,1.177-3.081,1.073-4.085-.173-1.212-1.627-1.869-2.6-2.6-2.562-1.9-19.11-13.4-21.4-15.648-.969.623-7.132-.069-6.993,1.142C478.269,61,498.9,73.71,500.218,74.333a28.123,28.123,0,0,1,7.374,5.712" transform="translate(-482.319 -61.171)" fill="#ed712d"/>
        </g>
        <g id="Grupo_1892" data-name="Grupo 1892" clip-path="url(#clip-path)">
          <path id="Trazado_14361" data-name="Trazado 14361" d="M493.989,84.744a6.6,6.6,0,0,1-1.108,1.8c-1.973-.069-4.085-1.246-5.92-1.973a30.226,30.226,0,0,1-3.635-1.35c-1.039-.589-26.8-11.355-26.83-12.706-.138-4.362,6.335-5.089,9.036-3.531,2.112,1.246,26.346,15.475,28.077,17.172" transform="translate(-468.197 -66.423)" fill="#f18a49"/>
        </g>
        <g id="Grupo_1893" data-name="Grupo 1893" clip-path="url(#clip-path)">
          <path id="Trazado_14363" data-name="Trazado 14363" d="M488.451,99.9a12.618,12.618,0,0,1-.727,2.943c-2.423-1.039-5.331-1.039-7.963-1.454-1.8-.312-28.735-8.274-30.362-9.07.762-1.177,2.562-4.293,3.7-5.193,1.973-1.558,26.969,9.9,29.081,10.663s4.362,1,6.37,2.043" transform="translate(-463.56 -79.987)" fill="#ed712d"/>
        </g>
        <g id="Grupo_1894" data-name="Grupo 1894" clip-path="url(#clip-path)">
          <path id="Trazado_14365" data-name="Trazado 14365" d="M491.975,116.87a15.829,15.829,0,0,1-.173,3.393c-5.262-.415-9.9.45-14.99,1.489.312-.623-20.322-.969-20.114-1.662.208-.831,3.427-9.763,3.877-10.351.935-1.246,23.68,6.335,25,6.4,1.454.1,0,0,1.454.138a38.764,38.764,0,0,1,6.024.8" transform="translate(-468.329 -94.776)" fill="#f18a49"/>
        </g>
        <g id="Grupo_1895" data-name="Grupo 1895" clip-path="url(#clip-path)">
          <path id="Trazado_14367" data-name="Trazado 14367" d="M519.4,138.5c.589.9-.069,3.6.035,4.674-4.639.069-15.787,2.77-20.149,3.635-.208-3.15,3.047-6.647,8.967-7.3,1.454-.138,2.043,0,3.5-.242,1-.173,2.77-.1,3.808-.208a24.3,24.3,0,0,1,3.877-.1" transform="translate(-496.167 -113.671)" fill="#ed712d"/>
        </g>
        <g id="Grupo_1896" data-name="Grupo 1896" clip-path="url(#clip-path)">
          <path id="Trazado_14369" data-name="Trazado 14369" d="M560.86,89.058a2.033,2.033,0,0,0-.554-.346c-.9-.866-1.489-2.112-2.423-3.012a9.336,9.336,0,0,0,.069,4.258l-.035.035a3.787,3.787,0,0,1-.381.346,13.758,13.758,0,0,1-2.389-2.32,5.258,5.258,0,0,0,.658,3.912c-.035.035-.069.035-.069.069a6.354,6.354,0,0,1-3.289-1.385c-.346,1.316.554,2.458,1.142,3.635-.035.035-.035.035-.035.069a16.529,16.529,0,0,0-3.15-.692c.242,1.039,1.039,2.285,1.212,3.393-.866-.45-1.627-1.142-2.493-1.662a4.824,4.824,0,0,0,2.32,2.735c-1.143-.138-2.25.1-3.393-.035.069,1.108,1.35,2.077,2.354,2.943a8.5,8.5,0,0,0-.277,1c-.865.1-1.7.138-2.562.173.381,1,1.523,1.523,2.043,2.493-1.385.519-2.423,1.558-3.808,2.112.969,1.419,3.912.277,5.3.935l.1.346c-.069-.1,8-2.423,7.963-2.6,2.631-.519,3.912-1.593,6.162-2.873,2.216-1.246,4.258,5.02,6.474,3.877l1.7-2.943c-.519-2.666-3.912-.969-4.639-3.7-.45-1.316-6.889-9.832-8-10.767" transform="translate(-526.586 -79.15)" fill="#f4af7b"/>
        </g>
        <g id="Grupo_1897" data-name="Grupo 1897" clip-path="url(#clip-path)">
          <path id="Trazado_14371" data-name="Trazado 14371" d="M553.512,142.546,551.4,147.22l2.7-.865v2.735l2.146-2.423,1.039,3.116,1.212-3.358,2.043,3.358v-3.774l2.943,2.77-.519-3.289,3.289,1.523-1.973-5.712Z" transform="translate(-530.247 -115.502)" fill="#f4af7b"/>
        </g>
      </g>
      <path id="Trazado_14373" data-name="Trazado 14373" d="M536.431,172.4s.831,12.74-18.349,12.082c0,0-6.993-.312-12.082-4.431,0,0,6.889,3.531,12.117,3.5C518.117,183.548,532.934,185.694,536.431,172.4Z" transform="translate(-500.565 -126.355)" fill="#e74c0f"/>
      <g id="Grupo_1899" data-name="Grupo 1899" transform="translate(1.385 9.385)">
        <path id="Trazado_14374" data-name="Trazado 14374" d="M494.3,78.795c.658-.692,1.523-3.254,1.939-4.12a10.479,10.479,0,0,1,2.7-3.566c3.808-3.289,9.313-3.531,14.333-3.047a20.665,20.665,0,0,1,4.847.9s5.262,1.316,7.2,3.774c0,0-1.212-3.635-6.578-5.3a23.168,23.168,0,0,0-5.331-.865c-3.912-.173-7.824-.1-11.459,1.385s-6.855,4.778-7.616,8.586" transform="translate(-494.3 -66.507)" fill="#e74c0f"/>
      </g>
      <g id="Grupo_1900" data-name="Grupo 1900" transform="translate(61.727 65.709)">
        <path id="Trazado_14375" data-name="Trazado 14375" d="M669.639,234.046l-.069-.346c-.692.138-.485-.1-.969.381.1.173.312.589.554.554-.035-.138-.277-.346-.173-.519.173.1.139.277.381.415.242-.277-.138-.208-.035-.519Z" transform="translate(-668.6 -232.142)" fill="#1d1d1b"/>
        <path id="Trazado_14376" data-name="Trazado 14376" d="M669.8,233.4a1.284,1.284,0,0,0,.312.069c-.1-.035-.242-.208-.312-.069" transform="translate(-669.385 -231.911)" fill="#1d1d1b"/>
        <path id="Trazado_14377" data-name="Trazado 14377" d="M669.339,232.377c.035-.208.242.035.277,0l-.415-.277Z" transform="translate(-668.992 -231.096)" fill="#1d1d1b"/>
        <path id="Trazado_14378" data-name="Trazado 14378" d="M669.763,230.2l-.035-.1c-.069.035-.035.069.035.1" transform="translate(-669.313 -229.788)" fill="#1d1d1b"/>
        <path id="Trazado_14379" data-name="Trazado 14379" d="M669.649,229.2c-.138.069-.069.173,0,.312h.035c.138-.1.415.035.346.208.069.208-.242.173-.069.346l.277-.208c-.035-.312-.485-.519-.589-.658" transform="translate(-669.234 -229.2)" fill="#1d1d1b"/>
        <path id="Trazado_14380" data-name="Trazado 14380" d="M669.9,230.4v.1c.069-.035.035-.069,0-.1" transform="translate(-669.45 -229.985)" fill="#1d1d1b"/>
      </g>
      <path id="Trazado_14381" data-name="Trazado 14381" d="M669.769,231.8l.1-.035-.173-.069Z" transform="translate(-607.592 -165.126)" fill="#1d1d1b"/>
      <g id="Grupo_1901" data-name="Grupo 1901" transform="translate(62.177 64.836)">
        <path id="Trazado_14382" data-name="Trazado 14382" d="M669.9,226.859c.415.069-.069.485.242.554a.418.418,0,0,1,.554-.381l-.1-.312a.759.759,0,0,0-.692.138" transform="translate(-669.9 -226.678)" fill="#1d1d1b"/>
      </g>
      <g id="Grupo_1902" data-name="Grupo 1902" transform="translate(62.524 62.939)">
        <path id="Trazado_14383" data-name="Trazado 14383" d="M671.039,221.2l.381.727c-.139-.069-.277-.069-.312-.208-.069.312.173.381.138.623-.381.035,0-.45-.346-.346a.622.622,0,0,0,.312.623l-.277.277.415-.069c.138-.1-.312-.242,0-.312.173-.035.208.1.242.173-.069-.208.381-.485.346-.865-.035-.415-.727-.346-.9-.623" transform="translate(-670.9 -221.2)" fill="#1d1d1b"/>
      </g>
      <path id="Trazado_14384" data-name="Trazado 14384" d="M672.5,221.1l.035.035.173-.035Z" transform="translate(-609.422 -158.196)" fill="#1d1d1b"/>
      <g id="Grupo_1903" data-name="Grupo 1903" transform="translate(62.517 51.411)">
        <path id="Trazado_14385" data-name="Trazado 14385" d="M671.188,217.166l.242.381a.371.371,0,0,1-.208.069c.1,0,.242.1.346.1.381-.138-.1-.45-.138-.658.208-.519.208.035.589-.138-.035.138-.1.138-.138.346.45-.277.069-.727,0-.935-.035.069-.173.069-.138.173l-.1-.208a.731.731,0,0,0-.45.865" transform="translate(-671.078 -206.468)" fill="#1d1d1b"/>
        <path id="Trazado_14386" data-name="Trazado 14386" d="M670.958,220.308c-.035-.138,0-.173.069-.208-.138.035-.208.1-.069.208" transform="translate(-670.882 -208.952)" fill="#1d1d1b"/>
        <path id="Trazado_14387" data-name="Trazado 14387" d="M672.951,216.1a.065.065,0,0,0,0,.1c.035-.035.035-.035,0-.1" transform="translate(-672.218 -206.337)" fill="#1d1d1b"/>
        <path id="Trazado_14388" data-name="Trazado 14388" d="M671.479,216.142l.069-.242-.173.1c-.035,0,0,.138.1.138" transform="translate(-671.196 -206.206)" fill="#1d1d1b"/>
        <path id="Trazado_14389" data-name="Trazado 14389" d="M672.64,188q-.26,0-.208.312c-.208-.035-.138-.277-.277-.415-.138.242-.242-.035-.45.035-.035.277.208.45.139.762a.219.219,0,0,0-.242.035,2.382,2.382,0,0,1,.069,1.385,1.988,1.988,0,0,0,.035,1c-.208,1.281-.069,2.631-.346,4.016l.381.208c-.208.069-.035.346-.277.277.069-.069.035-.138.035-.242-.381.277-.035.8-.173,1.142.069-.035.415-.069.485.035-.45-.069-.035.415-.554.485-.139.346.381.035.312.415.277.069.138-.346.346-.415.208.138-.1.312.173.346.173-.589-.312-1.731-.415-2.631l.242.1a1.582,1.582,0,0,1,.312-1.558c-.242.069.173-.692-.381-.658.138-.1.1-.138.173-.312l-.173-.069c.035-.242.277-.173.277-.45-.242.173-.312-.035-.485-.138.277-.312.519-.658.762-.9a.682.682,0,0,0-.277.138c.1-.173-.138-.173-.208-.208,0-.173.312-.138.45-.138.1-.312-.45-.519-.242-.762l-.242.069c-.035-.346.242-.623.208-1,.346-.173.277.346.381.485.069-.069.1-.242.208-.277a4.828,4.828,0,0,1-.519-.658c.415.208.45-.277.485-.415" transform="translate(-671.111 -187.9)" fill="#1d1d1b"/>
        <path id="Trazado_14390" data-name="Trazado 14390" d="M675.5,191.235l.138.1c-.035-.035-.035-.069-.035-.138Z" transform="translate(-673.901 -190.058)" fill="#1d1d1b"/>
        <path id="Trazado_14391" data-name="Trazado 14391" d="M675.3,188.151h.035c-.035-.035-.035-.035-.035,0" transform="translate(-673.771 -188.047)" fill="#1d1d1b"/>
      </g>
      <g id="Grupo_1904" data-name="Grupo 1904" transform="translate(71.456 35.035)">
        <path id="Trazado_14392" data-name="Trazado 14392" d="M696.7,140.738l.242-.138a.559.559,0,0,0-.242.138" transform="translate(-696.7 -140.6)" fill="#1d1d1b"/>
      </g>
      <g id="Grupo_1905" data-name="Grupo 1905" transform="translate(81.08 33.997)">
        <path id="Trazado_14393" data-name="Trazado 14393" d="M724.638,137.8c0,.1-.138.138-.138.242.485.069.45-.069.138-.242" transform="translate(-724.5 -137.731)" fill="#1d1d1b"/>
        <path id="Trazado_14394" data-name="Trazado 14394" d="M742.4,140.273l.658-.069-.416-.1c0,.138-.173.173-.242.173" transform="translate(-736.203 -139.234)" fill="#1d1d1b"/>
        <path id="Trazado_14395" data-name="Trazado 14395" d="M750.9,137.6a6.515,6.515,0,0,1-2.32,0c-.485.277.242.519,0,.762.519.069.45-.415.969-.485.208.242.762-.035,1.281,0a.171.171,0,0,1,.069-.277" transform="translate(-740.13 -137.6)" fill="#1d1d1b"/>
      </g>
      <g id="Grupo_1907" data-name="Grupo 1907" transform="translate(80.561 34.031)">
        <g id="Grupo_1906" data-name="Grupo 1906">
          <path id="Trazado_14396" data-name="Trazado 14396" d="M759.373,138l-.173.069Z" transform="translate(-746.668 -137.896)" fill="#1d1d1b"/>
          <path id="Trazado_14397" data-name="Trazado 14397" d="M723.415,139.8l-.415.1.138.1Z" transform="translate(-723 -139.073)" fill="#1d1d1b"/>
          <path id="Trazado_14398" data-name="Trazado 14398" d="M724.338,137.7c0,.1-.138.138-.138.242.519.069.45-.069.138-.242" transform="translate(-723.785 -137.7)" fill="#1d1d1b"/>
          <path id="Trazado_14399" data-name="Trazado 14399" d="M742.1,140.273l.658-.069-.415-.1c0,.1-.173.138-.242.173" transform="translate(-735.488 -139.269)" fill="#1d1d1b"/>
          <path id="Trazado_14400" data-name="Trazado 14400" d="M756.2,138.481l-.346.242c.208-.138-.208-.415.1-.623a9.151,9.151,0,0,1-1,.069l.589.138a.785.785,0,0,1-1-.138c-.9.277.519.485.727.727" transform="translate(-743.428 -137.962)" fill="#1d1d1b"/>
          <path id="Trazado_14401" data-name="Trazado 14401" d="M755.1,138.4Z" transform="translate(-743.987 -138.158)" fill="#1d1d1b"/>
        </g>
      </g>
    </g>
  </g>
</svg>
