<svg id="sidebar-6" xmlns="http://www.w3.org/2000/svg" width="219.87" height="1080" viewBox="0 0 219.87 1080">
  <path id="sidebar-6-2" data-name="sidebar-6" d="M219.87,0h0V1080H0V0Z" fill="none"/>
  <g id="sidebar-">
    <path id="card-body" d="M0,0H219.87V1080H0Z" fill="#f3f3f7" fill-rule="evenodd"/>
    <path id="Trazado_14710" data-name="Trazado 14710" d="M88.1,99.1a16.4,16.4,0,0,0-4.7-3,26,26,0,0,0-5.1-1.4c-3.3-.5-6.4-1-8.7-2.6s-4.1-4.1-6.1-6.2a29.681,29.681,0,0,0-12.7-7.7,44.1,44.1,0,0,0-8.3-1.7,31.291,31.291,0,0,0-4.1-.1c-.6-.1-1.5-.2-3-.3-2.2-.2-8.6-.3-17-.5-2.1,0-4.3-.1-6.7-.1a21.8,21.8,0,0,0-7.4,1.3c-2.4.9-4.6,1.9-7,2A20.913,20.913,0,0,1-10,77.7c-5-1.5-10-3.1-14.7-4.5a17.889,17.889,0,0,0-7.6-.9A20.329,20.329,0,0,0-39,74.5,43.676,43.676,0,0,0-47.9,81c-2.2,1.9-3.8,3.3-4.7,4-1.8,1.5-2.5,2.1-2.6,2.4a13.087,13.087,0,0,0-1.6,1.3,14.541,14.541,0,0,0-3,3.6,9.123,9.123,0,0,0-.9,2.2,6.606,6.606,0,0,0,.1,3.4,12.532,12.532,0,0,0,2,3.5,41.137,41.137,0,0,0,2.9,3.5,87.114,87.114,0,0,0,8.1,7.2c3.1,2.4,6.4,5.1,10.2,7.7A66.864,66.864,0,0,0-24.7,127c2.4,1,4.9,1.6,7.3,2.6a12.313,12.313,0,0,1,5.8,4.2c.7,1,1.3,2.2,2.1,3.5a11.8,11.8,0,0,0,3.1,3.2,31.974,31.974,0,0,0,7.9,3.4,68.352,68.352,0,0,1,15,7A25.732,25.732,0,0,1,26.8,163c1.9,5,1.9,10.6,3,16a31.378,31.378,0,0,0,2.7,7.8,44.56,44.56,0,0,0,4.4,6.6,90.978,90.978,0,0,0,10.3,10.3c3.4,3,6.6,5.8,9.3,8.6a64.561,64.561,0,0,1,6.7,8c1.5,2,2.7,3.9,3.7,5.5-.2.6-.5,1.6-1,3.5-.3,1.3-.9,3.7-1.7,6.9A66.926,66.926,0,0,1,60,247.8a45.791,45.791,0,0,1-9.3,12.7,137.152,137.152,0,0,1-13.1,12,66.691,66.691,0,0,1-14.9,9.2c-1.3.6-2.7,1.1-4,1.8a18.312,18.312,0,0,0-3.6,2.6c-2.1,2-3.6,4.1-5.2,5.9a33.232,33.232,0,0,1-9.2,7.8c-.1.1-.2.1-.3.2a.367.367,0,0,0-.1-.3c-.1-.1-.4,0-1.1,1-2.1,1.2-3.8,2-4.7,2.5A22.479,22.479,0,0,0-8,304.6c-.1,0-.3.1-.7.4-.6.4-.7.6-.6.7h0a30.6,30.6,0,0,0-3.1,6.2A41.678,41.678,0,0,0-15,323.8a42.7,42.7,0,0,0,.9,12.2,29.418,29.418,0,0,0,1.3,4.4,4.877,4.877,0,0,0,.3.7c-3.4,1.5-7,3-10.6,4.6-8.2,3.5-16.5,7-23,10.3-1.6.8-3.1,1.6-4.5,2.3-.7.4-1.3.7-2,1.1a5.794,5.794,0,0,0-1.9,1.4,3.447,3.447,0,0,0-.1,4.1,2.938,2.938,0,0,0,2.3,1.4,3.985,3.985,0,0,0,1.7-.3h0c0,.1,0,.2.1.2.2.2.4.2,1.9-.6a27.948,27.948,0,0,1,7.6-2.9c3.9-1,9.2-1.6,14.3-3.5A113.337,113.337,0,0,0-7.4,348.4c.3.2.9.5,1.7.9a116.035,116.035,0,0,0,11.4,4.3,30.771,30.771,0,0,0,10,1.7A53.315,53.315,0,0,0,26.8,354c3.7-.8,7.3-1.8,10.7-2.8a42.437,42.437,0,0,0,5-1.8,21.415,21.415,0,0,0,4.2-2.6c2.4-1.9,4.3-3.8,5.8-5.2s2.6-2.3,3.2-2.8c1.4-1.1,1.8-1.6,1.9-1.9.4-.3.8-.6,1.4-1a103.3,103.3,0,0,0,14.5-13.3A52.905,52.905,0,0,0,82,309.5c1.4-2.4,3.3-6.1,5.4-10.7a102.337,102.337,0,0,0,7.7-24.5,78.139,78.139,0,0,0,1-13.5,103.184,103.184,0,0,0-1.2-12.1c-1.2-7.2-1.8-12.6-2-14.5a11.5,11.5,0,0,0-.5-2.7,5.842,5.842,0,0,0-.3-2.2,33.028,33.028,0,0,1-.7-10.1c.3-5,2-11.2,3.9-17.3a118.091,118.091,0,0,0,4-17.7,62.711,62.711,0,0,0,.7-10.5,12.494,12.494,0,0,0-.3-1.9c.1-.5.3-1.2.4-2a88.019,88.019,0,0,0,1.5-22.9,154.543,154.543,0,0,0-2.7-18.6c-.7-3.3-1.4-6.6-2.1-10A56.76,56.76,0,0,0,93.9,108,21.151,21.151,0,0,0,88.1,99.1Zm-1.5,1.8a21.21,21.21,0,0,1,5.1,7.6,62.521,62.521,0,0,1,.1,6.4,62.033,62.033,0,0,1-2.6,14.3c-3,10-8,19.3-8.7,21.4-.2.4-.3.8-.4,1-2.5-3.7-5-7.6-7.7-11.6a16.288,16.288,0,0,1-1.1-1.7l1-1a55.846,55.846,0,0,0,10.2-19,29.649,29.649,0,0,0,.9-13.7,19,19,0,0,0-2.6-6.9l1.8.6A15.3,15.3,0,0,1,86.6,100.9Zm2.3,79.9c.9,3.9,1.7,7.5,2.3,10.7a67.191,67.191,0,0,1,1.1,13.6l-.9,3.3c0-1,0-2.3-.1-4a125.468,125.468,0,0,0-8-36A104.017,104.017,0,0,0,77,155.3c-2.5-4.4-5.2-8.9-8.2-13.4a112.758,112.758,0,0,0-10.1-13.2,98.275,98.275,0,0,0-12.6-11.5c-4.5-3.5-9.2-6.8-13.8-9.9s-9.4-6.2-14.7-8A71.416,71.416,0,0,0,2,95.7c-2.8-.4-5.6-.7-8.2-1.1v-.1c-.1,0-.1-.1-.3,0-2-.3-3.9-.5-5.8-.8-9-1.2-17-2.2-23.3-2.7s-11-.7-13.4-.6a50.209,50.209,0,0,0-8,.5c.1-.1.1-.2.2-.2.5.1,2.4-.3,8.6-1.1a83.4,83.4,0,0,1,13.7-.4c6.4.4,14.4,2.5,23.7,4.2,2.3.4,4.8.7,7.3.9a67.381,67.381,0,0,0,7.8.1,21.616,21.616,0,0,1,7.6.7,46.6,46.6,0,0,1,7.4,3.1c10,4.9,20.5,10.1,29.7,17.1a66.042,66.042,0,0,1,12.2,12c3.4,4.5,6.5,9.4,9.6,14s6.1,9.1,9,13.4a73,73,0,0,1,3.8,6.5,35.063,35.063,0,0,1,2.4,6.6C87.1,172.4,87.9,176.8,88.9,180.8Zm-.1,17.6a59.84,59.84,0,0,0-8.8-7.7,65.921,65.921,0,0,0-18-9.1c-6.9-2.2-13.8-3.7-19.2-5.7a40.907,40.907,0,0,1-10.2-5.1,12.122,12.122,0,0,0-1.6-1,37.826,37.826,0,0,0-1.9-7.9,20.77,20.77,0,0,0-3.3-5.8c5.8,2.1,16,5.5,26.2,9,6.9,2.3,13.8,4.6,19.4,6.5A69.224,69.224,0,0,1,82.2,176c.8.5,1.4.7,1.7.9a110.542,110.542,0,0,1,4.9,21.5Zm-115-74.7h-.3a69.373,69.373,0,0,1-8-4.6h0A32.223,32.223,0,0,0-24,119a107.713,107.713,0,0,0,17.4-4.6A141.384,141.384,0,0,0,10,107.5a95.37,95.37,0,0,0,9.1-5.1h0a71.1,71.1,0,0,1,11.8,6.9c-1.8.5-5.4,1.6-10,3.4-5.1,2-11.4,4.7-17.8,7a78.638,78.638,0,0,1-18.4,4.4A67.251,67.251,0,0,1-26.2,123.7ZM68.4,94.1a16.854,16.854,0,0,0,4.3,2c-.1.1-.1.3-.1.6a50.62,50.62,0,0,1,.9,7.2,54,54,0,0,1-.3,7.3c0,.5.2.7.4.7s.3,0,.5-.5a22.713,22.713,0,0,0,.8-7.5,20.944,20.944,0,0,0-1.5-7.4.1.1,0,0,0-.1-.1c1.5.4,3.1.6,4.6.9.5.1,1.1.2,1.6.3,0,.1.1.2.1.3a24.812,24.812,0,0,1,2.5,7.2,28.6,28.6,0,0,1-1,13.1c-2.7,9.2-8.5,17.1-9.6,18.8a6.416,6.416,0,0,0-.6,1c-2.6-3.9-5.2-8-8.2-11.9-.9-1.1-1.8-2.2-2.8-3.3a2.476,2.476,0,0,0,.7-.9,32.3,32.3,0,0,0,2.9-5.8A41.62,41.62,0,0,0,66,105.2a43.83,43.83,0,0,0-.5-11.1c-.2-1.2-.5-2.2-.7-3.1C65.9,91.9,67,93.1,68.4,94.1ZM62,87.5a6.885,6.885,0,0,1,1.1,1.3,53.66,53.66,0,0,1,1.2,5.4,46.983,46.983,0,0,1,.4,10.8,49.471,49.471,0,0,1-2.3,10.5c-1.1,2.9-2.1,5-2.5,5.8a2.3,2.3,0,0,0-.3.9,64.032,64.032,0,0,0-7.1-6.7c.1-.2.3-.5.6-1a33.371,33.371,0,0,0,2.2-6.3,41.127,41.127,0,0,0,.8-11.4,38.359,38.359,0,0,0-2.8-11.1,33.457,33.457,0,0,0-3-5.5h0A27.537,27.537,0,0,1,62,87.5ZM48.9,79.7l.3.6A45.608,45.608,0,0,1,52,86.1a40.729,40.729,0,0,1,2.6,10.8,43,43,0,0,1-.6,11c-.7,3.1-1.5,5.4-1.7,6.2a5.073,5.073,0,0,0-.2.9c-.6-.5-1.3-1-1.9-1.5-2.2-1.7-4.5-3.3-6.8-4.8a2.181,2.181,0,0,0,.4-.5,10.662,10.662,0,0,0,1.4-5.8,46.793,46.793,0,0,0-1.2-10,43.671,43.671,0,0,0-6.4-14.6l-.2-.2c.4,0,.7-.1.9-.1.8.2,2,.4,4,.7A42.278,42.278,0,0,1,48.9,79.7Zm-12.3-2,.3.6a59.6,59.6,0,0,1,5.8,14.4,51.961,51.961,0,0,1,1.3,9.7,12.17,12.17,0,0,1-1,5.4,1.421,1.421,0,0,0-.2.6c-2.3-1.4-4.6-2.8-6.9-4.1v-.1a19.207,19.207,0,0,0,.3-6.6,17.1,17.1,0,0,0-1.8-6.3c-.3-.4-.5-.4-.7-.3-.1.1-.3.2-.2.7a51.175,51.175,0,0,1,1.2,6.2,44.987,44.987,0,0,1,.2,5.9c-2.1-1.2-4.3-2.3-6.4-3.3v-.1a33.46,33.46,0,0,0-2-12.1A38.793,38.793,0,0,0,21,78.1c7.1,0,12.5-.1,14.5-.2A2.345,2.345,0,0,1,36.6,77.7Zm-24.7.2h7.9V78a55.572,55.572,0,0,1,5.4,10.6,50.537,50.537,0,0,1,2.4,11.3c-2.5-1.3-5-2.5-7.5-3.7A41.208,41.208,0,0,0,12.3,93a12.816,12.816,0,0,0-2.7-.5v-.1a20,20,0,0,0-2-7.4,21.05,21.05,0,0,0-3.4-5.4c.3-.1.7-.3,1-.4A15.993,15.993,0,0,1,11.9,77.9ZM-2.3,81.4A19.318,19.318,0,0,0,3.2,80a36.777,36.777,0,0,1,3.2,5.6,48.322,48.322,0,0,1,2.3,6.8,36.845,36.845,0,0,0-4.7,0,52.458,52.458,0,0,1-8.9-.2,40.076,40.076,0,0,0-5.6-8.8A45.118,45.118,0,0,0-14.7,79c1.4.4,2.9.9,4.3,1.3A23.716,23.716,0,0,0-2.3,81.4Zm-22.9-5.7c2.5.8,5,1.5,7.5,2.3a51.839,51.839,0,0,1,6,6.2c2.5,3,4.5,6.3,5.5,7.7l-4.5-.6c-3.7-.6-7.1-1.3-10.4-2,0-.1-.1-.2-.1-.3a26.856,26.856,0,0,0-6-8.3,32.069,32.069,0,0,0-7.6-5.4,13.564,13.564,0,0,1,2.9-.6A15.872,15.872,0,0,1-25.2,75.7ZM-54,87.8l.2-.2a15.455,15.455,0,0,0,2.4-1.3,50.471,50.471,0,0,0,5-3.8,50.292,50.292,0,0,1,8.7-6,12.2,12.2,0,0,1,1.7-.7,44.444,44.444,0,0,1,7.9,5.9,53.386,53.386,0,0,1,6,7.4,89.139,89.139,0,0,0-12.4-1.7,60.237,60.237,0,0,0-14,.8c-4.6.9-6.8,1.5-7.8,2C-55.4,89.1-54.5,88.4-54,87.8Zm-4.8,9.5a5.728,5.728,0,0,1,.6-4.4c.3-.5.6-1,.9-1.4.5.2,2.4.3,8.4.5,2,.1,5.6.3,10.5.7a43.179,43.179,0,0,1-8,4.2c-2.1.9-4.3,1.7-6,2.3a18.3,18.3,0,0,1-3.4,1,1.578,1.578,0,0,0-.8.3A9.68,9.68,0,0,1-58.8,97.3Zm2.5,3.8c.1,0,.2.1.4.1a10.689,10.689,0,0,0,3.9-.7c1.8-.6,4-1.3,6.2-2.2a40.387,40.387,0,0,0,5.9-3,13.34,13.34,0,0,0,3-2.4c.5,0,.9.1,1.4.1,3.6.3,7.7.8,12.3,1.4a79.124,79.124,0,0,1-12.3,7,89.923,89.923,0,0,1-14.9,4.8c-.2.1-.4.1-.6.2-1.1-1-2.2-2-3.1-3A11.852,11.852,0,0,1-56.3,101.1Zm6,6A56.232,56.232,0,0,0-35,102.7a54.176,54.176,0,0,0,13.2-8.1c3,.4,6.1.8,9.4,1.3,1.1.2,2.3.3,3.5.5A31.716,31.716,0,0,1-14,99.5c-3.4,1.6-7.7,3.6-12,5.4A74.655,74.655,0,0,1-38.4,109a51.706,51.706,0,0,1-7.4,1,1.483,1.483,0,0,0-.7.1C-47.8,109.1-49.1,108.1-50.3,107.1Zm11.2,8.7A66.146,66.146,0,0,0-27.5,114a61.537,61.537,0,0,0,11.8-4c.8-.5.9-.7.8-.8s-.2-.2-1.1,0c-1.2.3-6.4,2.2-11.8,3.5s-10.9,2-12.1,2.2c-.1,0-.2,0-.2.1-1.8-1.4-3.6-2.7-5.2-3.9a34.462,34.462,0,0,0,7.3-.7,68,68,0,0,0,12.7-4c4.4-1.8,8.6-3.8,12-5.6a24.73,24.73,0,0,0,5.9-4.1c3,.4,6.2.9,9.4,1.3a73.694,73.694,0,0,1,15,3.4,6.117,6.117,0,0,1,1.2.5c-1.5.8-4.6,2.5-8.6,4.4C4.8,108.4-1,110.9-7,113a131.537,131.537,0,0,1-17.1,4.7,39.413,39.413,0,0,1-10.2.5,10.364,10.364,0,0,0-1.6-.1c-.1,0-.1-.1-.2-.1C-37.1,117.2-38.1,116.5-39.1,115.8Zm22.5,11.5c-2.3-.9-4.4-1.4-6.5-2.2a49.553,49.553,0,0,0,7.9.1,71.462,71.462,0,0,0,18.8-4.4c6.5-2.3,12.7-5.1,17.8-7.1,5.1-2.1,9-3.3,10.4-3.8h.1c3.4,2.3,6.7,4.6,10,7.1-3.6.3-15,2.1-16.5,2.6-.6.2-.7.4-.7.6s.1.3.8.3a174.42,174.42,0,0,0,17.4-2.7h0a18.259,18.259,0,0,1,1.6,1.3,101.754,101.754,0,0,1,12.3,11.3,17.409,17.409,0,0,1,1.2,1.4,61.633,61.633,0,0,0-10.4-4,40.56,40.56,0,0,0-10.3-1.5,56.679,56.679,0,0,0-11.5,1.1c-7.7,1.4-15.1,3.8-21.1,5.1a73.531,73.531,0,0,1-12.3,1.8,3.083,3.083,0,0,0-1,.1c-.4-.6-.8-1.3-1.2-1.9C-11.3,129.7-14.1,128.2-16.6,127.3ZM-5,138.4A9.956,9.956,0,0,1-8,135h.5a64.824,64.824,0,0,0,12.6-1.5c6.1-1.2,13.6-3.6,21.1-5a62.457,62.457,0,0,1,11.2-1.1,38.936,38.936,0,0,1,10,1.4A87.666,87.666,0,0,1,59.1,133c.2.1.3.1.5.2,2.6,3.2,5,6.5,7.2,9.8,2,3.1,4,6.2,5.8,9.3a42.339,42.339,0,0,0-9.4-6.1c-6-3.1-14.2-5.3-22.5-6.1a150.578,150.578,0,0,0-23.3,0c-6.6.5-11.6.9-13.4,1.1-.8.1-1.3.2-1.8.3H2.1A30.5,30.5,0,0,1-5,138.4Zm9.2,3.8h0c1.8,0,6.9-.4,13.5-.7a148.91,148.91,0,0,1,23.1.1,66.8,66.8,0,0,1,22.1,5.9,48,48,0,0,1,11,7.3c.2.1.3.3.4.4a102.45,102.45,0,0,1,7,14.1c.9,2.3,1.7,4.6,2.4,6.8-.3-.2-.6-.4-1-.7-1.3-1-5.3-3-10.9-4.9s-12.5-4.3-19.4-6.6c-11.3-3.9-22.7-7.6-28-9.3a38.794,38.794,0,0,0-4.2-3.9c1.3.1,3.5.2,5.8.5,3,.4,5.9,1.1,6.6,1.1.5,0,.6-.1.7-.3,0-.2,0-.3-.4-.6a30.486,30.486,0,0,0-6.7-1.6,26.284,26.284,0,0,0-6.9-.1.349.349,0,0,0-.2.1,14.625,14.625,0,0,0-1.3-.9A59.222,59.222,0,0,0,4.2,142.2Zm28,36.1c-.5-2.4-.8-4.9-1.1-7.5a7.3,7.3,0,0,1,1,.9,38.712,38.712,0,0,0,10.3,5.5c5.4,2.1,12.5,3.6,19.2,5.8a71.5,71.5,0,0,1,26.6,16c.4.3.6.6.9.8.3,2,.5,3.7.6,4.8.4,4.2.7,6.2.8,7.2a16.958,16.958,0,0,0-.4,2.2c-.1-.2-.3-.4-.5-.7a41.174,41.174,0,0,0-7.7-8,52.169,52.169,0,0,0-16.7-9.2c-6.5-2.1-13.3-2.8-18.5-4.1a37.2,37.2,0,0,1-10-3.8,5.9,5.9,0,0,0-.8-.4,17.1,17.1,0,0,1-1.3-2.3A35.815,35.815,0,0,1,32.2,178.3Zm60.4,93a13.123,13.123,0,0,1,.4,3.1,84.544,84.544,0,0,1-1.9,8.4,55.56,55.56,0,0,0-1.8-5.3,34.721,34.721,0,0,0-4.4-7.8,58.9,58.9,0,0,0-1.1-12.2c-.1-.6-.3-1.2-.4-1.9a48.617,48.617,0,0,1,6.5,8.8A21.416,21.416,0,0,1,92.6,271.3Zm-10.4,6.3c-1.5,1-5.9,4.1-10.7,6.7a111.8,111.8,0,0,1-11.8,5.4c-.8.4-.9.6-.8.8,0,.1.2.3,1.1.1a58.406,58.406,0,0,0,12.1-5A69.346,69.346,0,0,0,82,279v3.6c.1,1.1.2,2.2.3,3.2-.1.1-.3.2-.4.3a108.907,108.907,0,0,1-15.3,10.4,109.635,109.635,0,0,1-17,7.4c-.1,0-.2.1-.3.1,4-4.9,7.1-10.2,10.3-15.1,3.5-5.5,6.9-10.6,9.7-15.5h.2a33.125,33.125,0,0,0,7.5-2.7,36.937,36.937,0,0,0,5.4-3.4c0,2,0,4.2-.2,6.4A16.931,16.931,0,0,1,82.2,277.6ZM59.4,333.9a49.07,49.07,0,0,1-8.9,4.7,108.471,108.471,0,0,1-17.5,5c-6.3,1.5-12.7,2.6-17.9,2.2a26.879,26.879,0,0,1-9.9-2.6,11.436,11.436,0,0,0-1.4-.6c2-1.1,4.4-2.5,7.1-4.3.4.1,1,.3,2.1.6a49.848,49.848,0,0,0,12.6.5,91.551,91.551,0,0,0,21.1-4.8,110.934,110.934,0,0,0,19.8-8.7,47.924,47.924,0,0,0,4.7-3.1C66.2,328,61.8,331.8,59.4,333.9Zm15-15.4a56.054,56.054,0,0,1-8.7,6A112.91,112.91,0,0,1,46.1,333a94.569,94.569,0,0,1-20.7,4.9,55.942,55.942,0,0,1-12.3-.1,8.635,8.635,0,0,0-1.5-.1c2.2-1.5,4.6-3.1,7.1-5s5.2-4.1,7.8-6.4a10.83,10.83,0,0,0,2.2.3,54.049,54.049,0,0,0,11.2-.5,72.813,72.813,0,0,0,18.6-5.2A74.344,74.344,0,0,0,75.1,311a68.8,68.8,0,0,0,6.4-5.9,21.9,21.9,0,0,1-1.2,3.3c-.3.7-.6,1.4-.9,2a57.356,57.356,0,0,1-6.3,5.1c-3,2.1-6.3,4-6.9,4.6-.4.4-.4.6-.3.8.1.1.2.2.8,0a44.755,44.755,0,0,0,7.2-4.2,26.8,26.8,0,0,0,3.6-2.9A27.229,27.229,0,0,1,74.4,318.5Zm8.4-18.4c-.2.9-.4,1.8-.6,2.8a79.481,79.481,0,0,1-7.9,7A72.278,72.278,0,0,1,58,319.5a75.673,75.673,0,0,1-18.2,5.2,78.707,78.707,0,0,1-11,.9c-.7,0-1.2.1-1.5.1,1.5-1.3,3-2.6,4.5-4,.1,0,.2.1.3.2a19.379,19.379,0,0,0,6.8.4,19.371,19.371,0,0,0,6.6-1.7c.4-.3.4-.5.4-.7-.1-.1-.2-.3-.7-.2a47.43,47.43,0,0,1-6.5,1.1,43.57,43.57,0,0,1-6.1.1,1.755,1.755,0,0,1,.5-.4c.7-.6,1.3-1.2,2-1.9a9.888,9.888,0,0,0,1.5-.1,70.194,70.194,0,0,0,9.7-2.1,87.634,87.634,0,0,0,15.9-6.2,87.237,87.237,0,0,0,14.4-9.1,73.287,73.287,0,0,0,6.7-5.8C83.1,297,83,298.6,82.8,300.1Zm0-11.1c-.1,0-.2.1-.3.2-.6.4-2.8,2.8-5.3,4.8s-5.2,3.7-5.8,4.2c-.4.4-.4.5-.3.7.1.1.2.2.7.1a27.947,27.947,0,0,0,6.2-3.9,29.788,29.788,0,0,0,4.8-4.9c0,.4.1.8.1,1.2A23.484,23.484,0,0,1,83,294c-1,.9-3.7,3.3-7.5,6.1a98.163,98.163,0,0,1-14.3,8.8,102.793,102.793,0,0,1-15.6,6.2c-4.6,1.4-8.2,2.1-9.4,2.4-.1,0-.2.1-.4.1l4.5-4.2c2.5-2.4,5-4.9,7.4-7.5.3-.3.6-.7.9-1a4.343,4.343,0,0,0,1.3-.2,73.494,73.494,0,0,0,17.4-7.1c7.4-4,13.8-9.4,15.1-10.9A10.112,10.112,0,0,1,82.8,289Zm-1.1-31.1a65.161,65.161,0,0,1,.9,8,61.2,61.2,0,0,1-6.1,3.5,63.115,63.115,0,0,1-6.4,2.8c2.5-4.6,4.5-8.7,6.1-12.1a52.235,52.235,0,0,0,3-7.8c.2-.9.4-1.6.5-2.2A40.307,40.307,0,0,1,81.7,257.9Zm-7-20.1c.2.5.6,1.1.9,1.9.4.9,1.2,2.4,2.1,4.5-.3.5-.6,1.5-1.3,3.3-.4,1.1-1.1,3.1-2.3,5.7-.2-2-.7-6-1-10-.3-3.3-.5-6.7-.7-8.9A16.137,16.137,0,0,0,74.7,237.8Zm-7.2-8.4c.1-1.1.2-1.8.3-2.5,1.2,1.9,2.1,3.4,2.7,4.4.2.4.4.7.6,1.1a115.75,115.75,0,0,0,2.1,22.2.349.349,0,0,0,.1.2,80.408,80.408,0,0,1-4.8,8.8c-1.5,2.4-3.1,5.1-4.8,7.8.1-1.1.2-3.4.7-6.4.5-3.3,1.4-7.5,1.9-11.7a80.943,80.943,0,0,0,0-18.1A37.161,37.161,0,0,0,67.5,229.4Zm-5.4,19.2a69.477,69.477,0,0,0,3.5-9.8,106.8,106.8,0,0,1-.5,14.4c-.5,4.2-1.3,8.3-1.8,11.7a32.506,32.506,0,0,0-.4,6.9c0,.4.1.6.1.9-.7,1.1-1.5,2.3-2.2,3.4-2.2,3.3-4.6,6.6-7.1,9.9,0-4.8,5.4-28.5,5.6-31.6v-.8A35.3,35.3,0,0,0,62.1,248.6Zm-9.5,13.3a64.461,64.461,0,0,0,5.5-6.4c-.7,2.7-2,8.7-3.2,14.8a96.22,96.22,0,0,0-1.8,10.2,60.154,60.154,0,0,0-.3,6.1,4.331,4.331,0,0,0,.1.5c-.6.8-1.1,1.5-1.7,2.3-2.8,3.8-5.7,7.5-8.6,11.1.4-2.8,1-11.3,2.7-19.6a78.907,78.907,0,0,1,3.6-12.3c.9-2.3,1.8-4.1,2.4-5.4A15.937,15.937,0,0,0,52.6,261.9ZM39.3,274.2c.2-.2.4-.3.6-.5a19.815,19.815,0,0,0-1.3,3.9,28.179,28.179,0,0,0-1,6.9c.1.5.2.6.4.6s.3-.1.5-.6c.2-.7.6-3.7,1.4-6.7a60.057,60.057,0,0,1,1.9-5.9c2.4-2,4.7-4.2,6.9-6.3-.4.7-.7,1.5-1.1,2.4a63.649,63.649,0,0,0-3.8,12.5,119.749,119.749,0,0,0-2.3,20.4v.6A153.222,153.222,0,0,1,31.1,313v-.5c0-.9-.2-3.6-.2-7.1A68.937,68.937,0,0,1,32,293.2a77.826,77.826,0,0,1,3-11.8c.9-2.5,1.7-4.5,2.1-5.7A17.032,17.032,0,0,0,39.3,274.2ZM16.9,287.6c1.9-1.8,4.2-2.8,7-3.9-.7,1.3-1.6,3.1-2.6,5.4a69.444,69.444,0,0,0-3.7,13.2,109.654,109.654,0,0,0-1.4,21.4c.1,1.5.3,1.7.5,1.7s.3-.1.4-1.7c.2-2.1.3-11.8,1.9-21.2a66.626,66.626,0,0,1,3.5-12.9c1.2-3,2.3-5.3,2.9-6.5a59.633,59.633,0,0,0,10-5.9,35.332,35.332,0,0,0-1.6,4.1,76.614,76.614,0,0,0-3.2,12,69.581,69.581,0,0,0-.9,12.4,49.63,49.63,0,0,0,.6,7.2,4.053,4.053,0,0,0,.3,1q-3.45,3.3-6.3,5.7c0-1.1-.3-4.2-.3-7.4a69.5,69.5,0,0,0,.1-7.7c-.1-.6-.2-.7-.4-.7s-.3.1-.5.6a52.41,52.41,0,0,0-.7,7.7,28.06,28.06,0,0,0,.8,7.8.349.349,0,0,0,.1.2c-2.8,2.3-4.9,3.9-5.9,4.7a14.655,14.655,0,0,0-2.6,2.2c-.5.2-1.2.6-2.3,1.2-1.2.7-3.8,2.3-7.5,4.3h0v-.3a153.687,153.687,0,0,1,1.7-19.8A168.919,168.919,0,0,1,11,294c.3-.3.5-.6.8-.9C13.5,291.3,15,289.3,16.9,287.6ZM2,301.3H2a29.169,29.169,0,0,0-1.1,3.2A15.788,15.788,0,0,0,.1,309a.7.7,0,0,0,.4.5c.2,0,.3,0,.5-.3.2-.4.7-2.4,1.3-4.3.5-2,1.2-3.9,1.2-4.4h0a29.171,29.171,0,0,0,6-4.6,111.016,111.016,0,0,0-3.9,16.4,97.878,97.878,0,0,0-1.2,20c0,.3.1.5.1.7h0c-1.3.7-2.8,1.5-4.4,2.3q-1.95,1.05-4.2,2.1v-.9c-.1-1.8-1.6-10-.9-18.2a42.42,42.42,0,0,1,2.4-11.1,34.181,34.181,0,0,1,2-4.5C.1,302.3,1,301.9,2,301.3Zm-12.7,38.4c-.3-1.1-.7-2.5-1-4.2a53.2,53.2,0,0,1-.7-11.6,46.934,46.934,0,0,1,2.3-11.4c1-3.2,2.1-5.5,2.4-6.3a3.091,3.091,0,0,0,.2-.8,25.257,25.257,0,0,0,2.8-1c.5-.2,1.3-.5,2.2-.9A32.611,32.611,0,0,0-4,306.7a38.162,38.162,0,0,0-2.6,11.5,62.171,62.171,0,0,0,1.4,18.4,3.363,3.363,0,0,0,.4,1c-.9.4-1.8.8-2.7,1.3h0c-.2-.7-1-2.8-1.5-5-.6-2.3-.8-4.7-1-5.2-.2-.4-.3-.4-.5-.4s-.3.1-.4.5a16.372,16.372,0,0,0,.6,5.5,14.7,14.7,0,0,0,2,5h0l-2.1.9C-10.6,340.2-10.6,340-10.7,339.7Zm-16.5,17.4c-4.7,1.8-9.9,2.5-14,3.7a23.642,23.642,0,0,0-7.8,3.6h0a.1.1,0,0,0-.1-.1c-.1-.1-.2,0-.6.2a2.747,2.747,0,0,1-2.1.4,1.937,1.937,0,0,1-1.1-.8,1.834,1.834,0,0,1,.2-2.1c.5-.6,2.1-1.2,3.4-1.9,1.4-.7,2.9-1.4,4.5-2.2,6.5-3.1,14.7-6.5,23-10,3.7-1.6,7.5-3.2,11.1-4.8.4-.2.9-.4,1.3-.6,3.8-1.7,7.4-3.5,10.5-5.2a95.625,95.625,0,0,0,12.5-7.7,10.712,10.712,0,0,0,2.1-1.9c.5-.2,1.4-.7,2.9-1.5a83.96,83.96,0,0,0,14.2-11.4,205.346,205.346,0,0,0,20.4-23.9c3.3-4.5,6.7-9,9.6-13.4,3-4.5,5.5-8.8,7.7-12.7a72.345,72.345,0,0,0,7.4-16.7c.2-.9.3-1.6.4-2.2l.9,2.4c-.3.7-.7,1.9-1.4,3.7-.5,1.4-1.6,4-3.3,7.5-1.7,3.4-4,7.9-6.8,12.7s-6.3,10.1-10,15.6-7.2,11.6-11.8,16.7-9.9,9.8-14.7,14.4c-4.8,4.5-9.6,8.7-14,12.1A156.062,156.062,0,0,1-1.6,343.5a25.226,25.226,0,0,0-3.9,2.6,6.418,6.418,0,0,0-1.6.5C-9.1,347.3-17.8,353.2-27.2,357.1Zm78.7-16.7c-1.6,1.3-3.5,3.2-5.8,4.9a23.513,23.513,0,0,1-8.6,3.9c-3.4.9-7,1.9-10.6,2.7a49.515,49.515,0,0,1-10.6,1.3,31.374,31.374,0,0,1-9.4-1.5C.9,350-3.4,348.4-4.9,348a4.4,4.4,0,0,0-1-.2c.7-.6,1-.9,1.1-1.2A26.049,26.049,0,0,0-1,345.1l-.1.1c-.1.1-.1.3.1.6a11.368,11.368,0,0,0,4,2.3,11.464,11.464,0,0,0,4.5.9c.3-.1.4-.2.4-.4s0-.3-.3-.5c-.4-.2-2.3-.6-4.2-1.3-1.8-.7-3.6-1.6-4-1.7H-.7c.9-.4,2.2-1.1,3.9-2a9.513,9.513,0,0,0,1.5,1.1A22.753,22.753,0,0,0,15,347.3c5.4.5,12-.6,18.3-2.1A99.736,99.736,0,0,0,50.9,340c1.2-.5,2.4-1.1,3.4-1.6A12.559,12.559,0,0,0,51.5,340.4Zm34.3-42.2c-.2.4-.3.8-.5,1.2a37.476,37.476,0,0,0,.1-8.2c-.2-3-.6-6-.8-8.9a81.665,81.665,0,0,1,.2-8.6c0-.6.1-1.3.1-1.9a54.145,54.145,0,0,1,3.2,6.4c.8,1.9,1.5,3.9,2,5.5a8.076,8.076,0,0,1,.3,1.9C89,290.1,87.4,294.4,85.8,298.2Zm7.8-28.3a28.917,28.917,0,0,0-2.4-6.3,37.188,37.188,0,0,0-7.8-9.5c-.1-.1-.3-.2-.4-.3a53.955,53.955,0,0,0-6.1-14.9,13.028,13.028,0,0,0-2.6-3.3c0-.1-.1-.2-.1-.3a38.553,38.553,0,0,1,5,3.2,44.877,44.877,0,0,1,7.6,7.1,46.184,46.184,0,0,1,5.7,8.7c.7,1.4,1.2,2.6,1.6,3.6.1,1.1.1,2.2.2,3.3C94.1,264,94,266.9,93.6,269.9Zm0-16.1c0-.1,0-.1-.1-.2a43.263,43.263,0,0,0-5.7-9,42.969,42.969,0,0,0-7.9-7.2,24.4,24.4,0,0,0-5.4-3,3.385,3.385,0,0,1-.8-.3c-.5-1-1.1-2.1-1.8-3.6-.9-1.6-2.3-4.3-4.5-7.7a32.915,32.915,0,0,1,5.8,2,37.32,37.32,0,0,1,9.1,5.8,43.272,43.272,0,0,1,7.1,8.2c1.5,2.3,2.5,4.2,3.1,5.1.2,1.6.4,3.4.7,5.3A37.313,37.313,0,0,0,93.6,253.8Zm-1.9-19.3a48.433,48.433,0,0,0,.4,6.5,23.8,23.8,0,0,0-1.7-2.9,37.22,37.22,0,0,0-7.3-8.5,32.863,32.863,0,0,0-9.5-5.9,27.768,27.768,0,0,0-6.3-1.8h-.7c-.6-.9-1.2-1.8-1.9-2.8a67.328,67.328,0,0,0-6.8-8.3c-.7-.7-1.4-1.5-2.2-2.2a43.8,43.8,0,0,1,7.5.9,46.605,46.605,0,0,1,12.4,4.7,41.632,41.632,0,0,1,10.2,8.4,44.478,44.478,0,0,1,4.6,6.2c.1.2.2.3.3.5a4.874,4.874,0,0,0,.3.7,5.715,5.715,0,0,0,1,1.7A6.669,6.669,0,0,0,91.7,234.5Zm-2.2-15.3a33.43,33.43,0,0,0,.4,6.7,51.092,51.092,0,0,0-3.2-4.4,42.566,42.566,0,0,0-10.5-8.8,41.393,41.393,0,0,0-12.8-4.8,27.084,27.084,0,0,0-7.9-.5c-.2,0-.4.1-.6.1-1.7-1.7-3.6-3.3-5.5-5.1a51.327,51.327,0,0,0,6,.8c2.3.2,4.5.3,6.3.6s3.1.6,3.6.6c.7.1.9,0,1-.2.1-.1,0-.3-.7-.7a11.59,11.59,0,0,0-3.6-1c-1.8-.3-4.1-.5-6.4-.7s-4.5-.4-6.2-.7c-.6-.1-1.2-.3-1.7-.4a95.316,95.316,0,0,1-8.8-9.1c-.6-.7-1.1-1.5-1.6-2.2a37.722,37.722,0,0,0,9.5,3.8c5.3,1.4,12,2.2,18.4,4.2a52.513,52.513,0,0,1,16.3,8.8,64.72,64.72,0,0,1,7.8,7.5,12.037,12.037,0,0,0,1,1.1A15.23,15.23,0,0,0,89.5,219.2Zm9.4-49.4a20.266,20.266,0,0,0-.2,4.6c-.2,1.7-.5,5.2-1.3,9.7a126.462,126.462,0,0,1-3.5,15.4,58.942,58.942,0,0,0-.9-8.4c-.5-3.3-1.3-6.9-2.2-10.9l-.3-1.5.3-.3a37.258,37.258,0,0,0,6.9-10.3,42.2,42.2,0,0,0,1.8-4.5C99.3,166.5,99,168.6,98.9,169.8Zm.7-23.3c-.1-.1-.1-.1-.2-.1-.2,0-.3,0-.5.4-.3.6-1.2,3.4-2.3,6.1s-2.4,5.3-2.6,5.9c-.1.5,0,.6.2.7.1.1.3.1.6-.3a25.739,25.739,0,0,0,3.1-5.9,34.334,34.334,0,0,0,1.8-5.9c.3,3.5.3,6.8.3,9.7a57.355,57.355,0,0,1-3.5,10.5,59,59,0,0,1-6.2,10.1c-.7-3.3-1.3-6.7-2.3-10.4a55.176,55.176,0,0,0-1.8-5.3,2.81,2.81,0,0,0,.8-.8,90.2,90.2,0,0,0,8.5-13.7,38.2,38.2,0,0,0,3.3-8.8C99.1,141.4,99.4,144,99.6,146.5Zm-4.8-27.4c.7,3.4,1.5,6.7,2.2,10,.4,1.9.7,3.7,1.1,5.6-.1.9-.2,1.8-.4,2.9a40.79,40.79,0,0,1-3.4,9.3c-3.2,6.4-7.2,12.4-7.9,13.8a1.329,1.329,0,0,0-.3.7c-.2-.4-.3-.7-.5-1.1a64.765,64.765,0,0,0-3.9-6.7c-.3-.4-.6-.9-.9-1.3a11.846,11.846,0,0,0,.8-1.2c1-2,6.2-11.2,9.3-21.4a59.6,59.6,0,0,0,2.5-14.6v-2.4C93.8,114.7,94.3,116.9,94.8,119.1Z" transform="translate(90 371)" fill="#fff"/>
  </g>
  <path id="Trazado_14871" data-name="Trazado 14871" d="M506.1-59.5a2.089,2.089,0,0,0-.8-1,4.983,4.983,0,0,1-1-1.1,5.359,5.359,0,0,1-.5-1.1c-.5-1.6-.7-3.1-1-3.8-.8-2.1-1.3-2.2-1.5-2.1a.4.4,0,0,0-.1.5,22.532,22.532,0,0,0-1.8,4.7c-1.6,4.6-7,22.7-16,42.7l-1.7-1.7a12.627,12.627,0,0,0-5.8-3.3,23.014,23.014,0,0,0-11.5.6c-8.4,2.5-18.7,5.5-29.1,8.8-10.6,3.1-19.9,9.4-26.7,14.8-3.5,2.7-6.4,5.2-8.7,7.2s-4,3.5-4.8,4.4c-1.7,1.9-2.1,2.8-2.1,3.2-.3.4-.8.8-1.3,1.4A118.415,118.415,0,0,0,382.9,27c-2,3.2-4.1,6.8-6.2,10.7a38.413,38.413,0,0,0-2.7,6.5c-.7,2.4-.6,4.7-1.6,6.5-.9,1.9-2.6,3.8-3.4,6.1-.9,2.3-1.3,4.5-2.2,6.3a33.07,33.07,0,0,1-3.5,5.1,57.446,57.446,0,0,1-3.8,4.4,24.594,24.594,0,0,1-7.3,5.6,18.735,18.735,0,0,1-4.9,1.6c-1.4.2-2.2.2-2.6.3-.5.1-.6.2-.6.3s0,.2.5.4a6.209,6.209,0,0,0,2.9.3,15.146,15.146,0,0,0,5.6-1.4c.1,0,.1-.1.2-.1,1.3.2,5.4.7,9.5,1.5,3.3.6,6.6,1.4,8.4,1.9q-3.15.75-6,1.2a40.225,40.225,0,0,1-5.7.7,17.72,17.72,0,0,1-4.7-.3,39.8,39.8,0,0,1-5.9-1.4c-1.1-.3-2-.5-2.5-.6-1.9-2-2.4-2.3-2.6-2.1s.1.8,2.9,4.6c.9,1.2,2.8,3.5,5.3,6.6a61.09,61.09,0,0,0,4.5,5.1,11.963,11.963,0,0,0,3.4,2.3,18.578,18.578,0,0,0,4.2,1.2,161.041,161.041,0,0,0,18.8,2.6,52.907,52.907,0,0,0,10.5-.3,47.25,47.25,0,0,0,10.5-2.5c3.4-1.2,6.7-2.4,10-3.5a71.774,71.774,0,0,1,9.9-2.5c6.6-1.2,13.1-2.2,18.5-4.5A46.276,46.276,0,0,0,455,81.8a37.062,37.062,0,0,0,5.9-6.2,31.985,31.985,0,0,0,2.1-3.2c.3-.2.6-.5,1-.8a52.86,52.86,0,0,0,9.4-8.5c2.1-2.3,4.3-5.1,6.6-7.9,2.3-2.9,4.7-5.8,7.1-9A59.677,59.677,0,0,0,497.5,27,49.464,49.464,0,0,0,500,14.5a11.028,11.028,0,0,0-.1-2.2v-.2c.2-.8.6-3.1,1-6.2a59.631,59.631,0,0,0,.9-11,13.7,13.7,0,0,0-1.6-5.9,10.925,10.925,0,0,0-3.7-4.2,18.372,18.372,0,0,0-6.1-2.4h-.5c.6-.9,1.2-2,1.9-3.1a123.96,123.96,0,0,0,7.7-17.4c2.4-6.3,4.6-12.7,6.2-17.9.2-.7.4-1.2.6-2A2.053,2.053,0,0,0,506.1-59.5ZM464.9-23.1c4.1-1.2,7.8-1.5,10.5-.8a11.081,11.081,0,0,1,5.3,2.7,14.2,14.2,0,0,0,2.2,1.6c-.8,1.8-1.7,3.6-2.5,5.5l-.4-.4a19.116,19.116,0,0,0-4.6-2.4c-2.4-.9-5.5-1.7-8.5-2.5a76.554,76.554,0,0,0-8.4-1.6C460.7-21.8,462.9-22.5,464.9-23.1Zm7,25.8c-.4-.1-.9-.3-1.8-.6-1.5-.4-5.8-1.6-11.6-3a141.8,141.8,0,0,0-20.3-3.8,57.654,57.654,0,0,0-20.7,1.4,33.277,33.277,0,0,0-5.6,1.9A95.039,95.039,0,0,1,425-9.6c.1,0,.1.1.3.1a57.946,57.946,0,0,0,10.2.2c.4-.1.4-.3.5-.5,0-.1,0-.3-.4-.4a66.565,66.565,0,0,0-8.7-.3c2.2-1,4.4-2,6.7-2.8a35.694,35.694,0,0,1,5.6-.8A55.954,55.954,0,0,1,453.5-13c10.1,2.1,20.1,5,22.1,6,.5.2.8.3,1.1.4-.7,1.3-1.3,2.6-2,3.8C473.7-1,472.8.9,471.9,2.7Zm5.1-10a2.887,2.887,0,0,0-1-.6c-2-1.3-12-4.4-22.2-6.5a58.913,58.913,0,0,0-13.5-1.1c5.2-1.6,10.3-3.2,15.1-4.7.8,0,1.7.1,2.7.2a63.765,63.765,0,0,1,8.5,1.7c3,.8,6.1,1.5,8.4,2.3a35.648,35.648,0,0,1,4.6,2,1.421,1.421,0,0,0,.6.2C479.1-11.5,478.1-9.4,477-7.3ZM392.8,15.5h0c.1,0,.2-.1.3-.1.3-.1,1.2-.6,2.5-1.1a36.258,36.258,0,0,1,4.6-1.4,67.516,67.516,0,0,0,7.5-1.9c.5-.2.6-.4.5-.6,0-.1-.1-.3-.7-.3a58.781,58.781,0,0,0-7.6,1.4,25.821,25.821,0,0,0-4.7,1.6c-.5.2-.9.5-1.3.7a6.118,6.118,0,0,0,.6-1.3c.4-.4.9-.8,1.7-1.5,1.6-1.3,5.9-4.9,11.8-9.5a43.691,43.691,0,0,1,10-3.8,63.148,63.148,0,0,1,20.3-1.2A146.443,146.443,0,0,1,458.5.2c5.7,1.4,10.1,2.4,11.6,2.7a13.887,13.887,0,0,1,1.7.3A93.151,93.151,0,0,1,464.4,16l-1.2,1.5c-.5-.1-1.2-.3-2.3-.5-2-.3-7.6-1.3-15-2.2s-16.8-1.8-26.2-1a64.134,64.134,0,0,0-25.3,7.1,41.672,41.672,0,0,0-9.4,6.7C388.6,21.5,391.8,17.2,392.8,15.5ZM378.6,38.7c.4-.9.9-1.7,1.3-2.6l3-1.5c1.6-.7,3.2-1.3,3.5-1.5a.646.646,0,0,0,.2-.5c0-.1-.1-.3-.4-.3a14.468,14.468,0,0,0-3.8,1.1c-.5.2-.9.5-1.4.7.6-1.1,1.2-2.2,1.9-3.3a46.6,46.6,0,0,1,12-8.8c6.5-3.5,15.6-6.1,24.8-6.8a128.389,128.389,0,0,1,26,.9c7.4.9,13,1.7,15,1.9.9.1,1.5.1,2,.2-1.6,2-3.2,4-4.7,5.9-.8,1.1-1.6,2.1-2.4,3.1h0a40.534,40.534,0,0,0-7.8-1.6,33.235,33.235,0,0,0-8,0c-.6.2-.7.3-.6.5,0,.1.1.3.7.4.8.1,4.3.1,7.8.5,3.1.3,6.1.9,7.3,1-.9,1.2-1.8,2.5-2.7,3.6-.7,1-1.4,1.9-2,2.8-.4-.1-1.1-.2-2.7-.4-1.8-.2-7-.6-13.8-1.1s-15.3-1.3-23.9-.9a64.84,64.84,0,0,0-12.6,1.7,50.6,50.6,0,0,0-10.8,3.8A37.3,37.3,0,0,0,376,45a.367.367,0,0,1,.1-.3A31.65,31.65,0,0,1,378.6,38.7Zm-4.2,12.9a12.413,12.413,0,0,0,1.1-3.6c.1-.5.1-.9.2-1.3l.2-.2A39.569,39.569,0,0,1,387,38.7a52.548,52.548,0,0,1,10.6-3.6,70.1,70.1,0,0,1,12.3-1.6,197.993,197.993,0,0,1,23.8.8c6.8.4,12,.7,13.8.8h2.4c-2.5,3.5-4.8,6.5-6.8,9-2.6,3.2-4.6,5.4-5.7,6.5a20.59,20.59,0,0,0-1.5,1.6,11.854,11.854,0,0,0-2.4-.5,181.615,181.615,0,0,0-33.3-1.4,70.23,70.23,0,0,0-20.7,4.3,37.894,37.894,0,0,0-7,3.5,25.65,25.65,0,0,0-2.2,1.6,10.662,10.662,0,0,1,.7-1.9C371.7,55.6,373.2,53.9,374.4,51.6Zm-5.7,12.6h.1a24.667,24.667,0,0,0,3.4-1.3,25.635,25.635,0,0,0,3.3-1.6c.2-.2.2-.4.1-.5s-.1-.3-.4-.3a14.021,14.021,0,0,0-3.5,1.2,17.814,17.814,0,0,0-2.4,1.2c.2-.5.4-1.1.6-1.6a28.994,28.994,0,0,1,3.3-2.4,50.668,50.668,0,0,1,6.9-3.2,70.873,70.873,0,0,1,20.3-4.1c14.9-.9,29.9.7,33.1.9a6.933,6.933,0,0,0,2.1,0l-.5.5a17.5,17.5,0,0,0-2.7,1.9q-1.35,1.05-4.8,3.9c-2.2,1.8-5.1,4.1-8.5,6.5-.8.5-1.6,1.1-2.5,1.6-.3-.1-.8-.3-1.5-.5-2.4-.9-14.3-2.4-26.1-1.6a123.332,123.332,0,0,0-16.5,2.1c-2.3.5-4.4,1-6,1.4l-.9.3A26.862,26.862,0,0,0,368.7,64.2Zm27.8,10.4c-.9-.2-3.4-.7-6.8-1.3-3.4-.5-7.5-1.5-11.8-1.7-4.3-.4-8.6.4-12,1-1.9.3-3.5.7-4.7,1a38.666,38.666,0,0,0,3.2-3.7,9.172,9.172,0,0,1,2.5-.8c1.6-.4,3.6-.8,5.9-1.2a121.032,121.032,0,0,1,16.3-2A123.2,123.2,0,0,1,415,67a2.769,2.769,0,0,0,.9.1,63.862,63.862,0,0,1-8.7,4.2c-3.1,1.3-6.3,2.4-9.6,3.6A6.2,6.2,0,0,1,396.5,74.6Zm-23.9,8c-.8-.7-5.2-1.9-9.6-2.8a57.738,57.738,0,0,0-8-1c1-.6,2.1-1.4,3.2-2.2.9.4,7.1,1,7.9.7.3-.1.4-.2.4-.4a.373.373,0,0,0-.3-.4,33.413,33.413,0,0,0-6.9-.8l.6-.6a50.75,50.75,0,0,1,6.3-1.2,43.474,43.474,0,0,1,11.7-.9c4.2.3,8.3,1.1,11.7,1.6,3.3.5,5.8.9,6.7.9L393,76.7c-7,2.3-14,4.4-20.4,5.9Zm-13.1,4.3a42.9,42.9,0,0,0,5.9-.7,104.713,104.713,0,0,0,11.8-2.5c-1.2.4-2.4.8-3.6,1.1-5.7,1.7-10.7,2.6-14.7,2.4a22.672,22.672,0,0,1-7.5-1.5,20.522,20.522,0,0,0,3.1.7A19.723,19.723,0,0,0,359.5,86.9Zm-6.3,3.6c-1.3-1.5-2.4-2.8-3.4-3.9.1.1.2.1.3.2a21.2,21.2,0,0,0,8.7,2.3c4.3.3,9.6-.6,15.4-2.2.2-.1.4-.1.6-.2a44.565,44.565,0,0,1-6.9,6.2,17.837,17.837,0,0,1-6.2,2.8,15.235,15.235,0,0,1-3.2.4,6.469,6.469,0,0,1-.9-.8A63.912,63.912,0,0,1,353.2,90.5Zm7,6.7A11.019,11.019,0,0,0,362,97a17.754,17.754,0,0,0,6.7-2.9,35.255,35.255,0,0,0,7.9-7.9c5.1-1.5,10.6-3.2,16.4-5,1.1-.4,2.3-.7,3.4-1.1,0,.1-.1.1-.1.2a162.321,162.321,0,0,1-9.5,13.9,11.159,11.159,0,0,1-4,3.5,21.762,21.762,0,0,1-4.7,1.6,22.126,22.126,0,0,1-4.1.8c-.8-.1-1.6-.2-2.5-.3a21.41,21.41,0,0,0,2.8-1.6,14.662,14.662,0,0,0,3.5-3.1q.15-.45,0-.6c-.1-.1-.2-.2-.6,0s-2,1.5-3.6,2.7c-1.7,1.1-3.4,2.1-3.8,2.4-2-.3-3.8-.6-5.7-.9C362.8,98.1,361.4,97.7,360.2,97.2Zm32.8,3.3a57.137,57.137,0,0,1-10.1.3c-1.5-.1-3-.2-4.5-.4a.367.367,0,0,0,.3-.1,27.839,27.839,0,0,0,4.9-1.6,11.6,11.6,0,0,0,4.4-3.8,90,90,0,0,0,9.1-14.3,2.3,2.3,0,0,0,.3-.9c2.3-.8,4.6-1.6,6.9-2.5,0,.1-.1.3-.1.4-.2.7-.5,1.5-.8,2.4a27.242,27.242,0,0,0-1.2,3.8.462.462,0,0,0,.3.5c.1.1.3.1.5-.2a16.613,16.613,0,0,0,1.7-3.7c.3-.9.5-1.8.7-2.5a9.641,9.641,0,0,0,.2-1.2,63.509,63.509,0,0,0,7.9-3.8c.9-.6,1.8-1.2,2.8-1.8,0,.1-.1.2-.1.3-.3.8-.9,3.1-2,6a93.489,93.489,0,0,1-4.6,9.9c-.9,1.7-1.8,3.5-2.7,5.1a17.051,17.051,0,0,1-2.8,4.2,14.346,14.346,0,0,1-2.7,2A39.4,39.4,0,0,1,393,100.5ZM423.3,92a66.428,66.428,0,0,0-10.2,2.6c-2.6.9-5.3,1.9-8,2.8a15.546,15.546,0,0,0,3-4.4l2.7-5.1a77.176,77.176,0,0,0,4.5-10.1,33.3,33.3,0,0,0,1.7-6.2c0-.4.1-.7.1-1,1.9-1.3,3.9-2.5,5.8-3.8,3-2.1,5.9-4.3,8.7-6.5,1.5-1.2,2.9-2.3,4.3-3.5,0,.2-.1.5-.1.8-.2,1.8-.7,10.4-2,18.9-.6,4.2-1.7,8.3-3.6,11.1a13.282,13.282,0,0,1-3.6,3.8C425.5,91.7,424.4,91.8,423.3,92Zm18.2-4.2c-3.7,1.6-8,2.4-12.7,3.3a11.325,11.325,0,0,0,2.4-2.8c2.1-3,3.3-7.3,3.9-11.6a129.676,129.676,0,0,0,1.5-19,3.09,3.09,0,0,0-.2-1.3c2.4-2,4.6-4,6.7-5.9,0,1.3.2,3.9,0,6.6-.1,3.3-.6,6.5-.5,7.3,0,.5.2.7.3.7s.3,0,.5-.5a30.975,30.975,0,0,0,1-7.4,35.414,35.414,0,0,0-.5-7.4h0c.8-.8,1.7-1.6,2.4-2.4a97.468,97.468,0,0,0,7.9-8.8,9.888,9.888,0,0,0,.1,1.5,193.832,193.832,0,0,1,1.3,24.4,50.967,50.967,0,0,1-.6,8,16.561,16.561,0,0,1-2.7,6.5,27.52,27.52,0,0,1-6.1,6.3c-.3.3-.6.5-.8.7C444.3,86.6,442.9,87.2,441.5,87.8Zm24.7-20a32.749,32.749,0,0,0,.3-5.9,43.959,43.959,0,0,0-.4-6.9c-.2-.5-.3-.5-.5-.5-.1,0-.3.1-.4.6-.1.7-.1,3.8,0,6.8,0,3.1-.1,6.1-.1,6.8h0c-.9.8-1.7,1.5-2.1,1.9a7.162,7.162,0,0,0-1.6,2.2c-.4.5-1,1.1-1.7,1.9a43.237,43.237,0,0,1-6,5.7c-.9.7-1.9,1.5-3.1,2.3a24.106,24.106,0,0,0,2.8-3.3,17.009,17.009,0,0,0,2.9-7,45.721,45.721,0,0,0,.6-8.3,131.244,131.244,0,0,0-1.8-24.6c-.3-1.2-.4-1.6-.6-1.8a75.276,75.276,0,0,0,6.8-9.8,34.927,34.927,0,0,0,1.7-3.4c.2,0,.5-.3,1.2-1.1.6-.7,1.9-2.7,3.7-5.3,0,.2.1.4.1.6.5,2.1,2.9,12.3,4.4,22.5a52.814,52.814,0,0,1,.1,14.3,36.908,36.908,0,0,1-2.1,7.5A30.477,30.477,0,0,1,466.2,67.8Zm12-13.8c-2,2.6-3.9,5-5.7,7.1a26.906,26.906,0,0,0,1.3-5.1,47.97,47.97,0,0,0,.1-14.7A151.748,151.748,0,0,0,469,18.8c-.2-.5-.3-.8-.4-1.1v-.1c1-1.5,2.2-3.2,3.5-4.9.5-.7,1.1-1.3,1.6-2,.2,1.7,2.2,8.5,2.8,9.3a.6.6,0,0,0,.6.3c.1,0,.3-.1.3-.5,0-1-2.2-8.8-2.8-9.6l-.2-.2c.7-.8,1.4-1.6,2.2-2.4a27.962,27.962,0,0,0,2.5-3.5c.1.2.2.6.4,1a69.987,69.987,0,0,1,2.6,7.2,64.179,64.179,0,0,1,2.5,12.9c.9,9,0,18.1-.1,20.6C482.4,48.7,480.2,51.4,478.2,54Zm17.3-27.6c-.4,1.2-.9,2.4-1.4,3.6a21.156,21.156,0,0,0-.2-2.4,19.1,19.1,0,0,0-1-4.6.544.544,0,0,0-.5-.3c-.1,0-.3.1-.3.5,0,.5.3,2.5.5,4.6a35.688,35.688,0,0,0,.6,4.4,60.835,60.835,0,0,1-7.5,12.2,89.059,89.059,0,0,0,.3-19.3,66.759,66.759,0,0,0-2.7-13.2,43.629,43.629,0,0,0-3-7.2,11.848,11.848,0,0,0-.8-1.2,58.8,58.8,0,0,0,3.9-7.3c.6-1.3,1-2.4,1.4-3.4l.5.5A46.6,46.6,0,0,1,489-2.9a35.9,35.9,0,0,1,4.8,7.8,63.732,63.732,0,0,1,4,13.8A76.828,76.828,0,0,1,495.5,26.4Zm-8.7-39,.1.1a41.93,41.93,0,0,1,7.2,5.4,43.514,43.514,0,0,1,5.4,6.8c-.2,2.1-.5,4.2-.6,6a48.48,48.48,0,0,0-.4,6.3,1.877,1.877,0,0,0,.3,1.3c-.1.3-.1.7-.2,1.1a15.685,15.685,0,0,0-.3,1.6,50.873,50.873,0,0,0-3.4-11.6,32.382,32.382,0,0,0-5.1-8,20.606,20.606,0,0,0-4.1-3.7,5.9,5.9,0,0,0-.8-.4c.5-1.4.9-2.5,1-3,0-.2.1-.3.1-.5,0-.1.1-.2.1-.3A2.326,2.326,0,0,0,486.8-12.6Zm3.2-3.6a36.343,36.343,0,0,1,5.4,2.7,8.426,8.426,0,0,1,2.9,3.5,14.2,14.2,0,0,1,1.3,5.1,13.094,13.094,0,0,1,0,2.8A26.474,26.474,0,0,0,495-8a23.585,23.585,0,0,0-7.7-5.2h-.1c.3-.5.5-1,.9-1.6a17.393,17.393,0,0,1,1.1-1.8Zm14.3-42.1c-.1.4-.4,1.2-.6,1.8-1.7,5.1-3.9,11.5-6.3,17.7A150.469,150.469,0,0,1,490-21.7c-1.3,2.3-2.6,4.3-3.5,6a18.444,18.444,0,0,0-1.6,3.8c-.1.2-.1.4-.2.6,0,.1-.1.1-.1.2-.5.9-1.6,3.4-3.2,6.7a54.461,54.461,0,0,1-6.6,10.7c-1.4,1.7-3.1,3.4-4.4,5.2s-2.5,3.5-3.5,5.1a68.076,68.076,0,0,0-3.7,6.5,1.689,1.689,0,0,0-.2.5c-.5.6-1.3,1.8-2.8,4a118.621,118.621,0,0,1-15.3,18.3,165.493,165.493,0,0,1-12.8,11.3,15.613,15.613,0,0,0,1.3-1.3,16.672,16.672,0,0,0,1.4-1.5,27.568,27.568,0,0,0,3.7-3,84.736,84.736,0,0,0,6.1-6.4c2.7-3.2,5.9-7.4,9.4-12.1q2.7-3.6,5.7-7.5c2-2.6,4.3-5.2,6.4-8.1,4.2-5.9,7.3-12.6,10.6-19.3,1.6-3.3,3.3-6.6,4.9-9.9.8-1.6,1.6-3.3,2.4-4.9s1.5-3.3,2.2-4.9c.5-1.1.9-2.1,1.3-3.2.2.6.8,1.3,1.1,1.3a.52.52,0,0,0,.4-.2l.3-.3c.1-.3-.8-1.8-1.2-1.8-.1,0-.1,0-.2.1,2.1-5,3.9-9.9,5.5-14.3,4-11.2,6.5-19.9,7.3-23,.3-1.4.6-2.4.7-3.2h0a30.377,30.377,0,0,0,.7,4,7.09,7.09,0,0,0,.7,1.6,5.531,5.531,0,0,0,1.2,1.4C504.4-58.7,504.4-58.7,504.3-58.3Z" transform="translate(-315 783)" fill="#fff"/>
</svg>
